<?xml version="1.0" standalone="no"?>
<!DOCTYPE svg PUBLIC "-//W3C//DTD SVG 20010904//EN"
 "http://www.w3.org/TR/2001/REC-SVG-20010904/DTD/svg10.dtd">
<svg version="1.0" xmlns="http://www.w3.org/2000/svg"
 width="466.000000pt" height="466.000000pt" viewBox="0 0 466.000000 466.000000"
 preserveAspectRatio="xMidYMid meet">

<g transform="translate(0.000000,466.000000) scale(0.100000,-0.100000)"
fill="#000000" stroke="none">
<path d="M1229 4120 c-91 -16 -170 -76 -208 -159 -15 -33 -16 -180 -16 -1631
0 -1462 1 -1598 17 -1631 25 -57 83 -114 141 -140 l52 -24 508 -1 c279 -1 509
2 512 6 3 4 -32 10 -78 12 -51 3 -95 11 -115 22 -46 24 -35 31 14 9 36 -17 93
-18 684 -21 411 -2 661 1 690 7 25 6 56 13 70 16 23 6 23 5 -5 -12 -28 -17
-72 -18 -632 -21 -347 -1 -603 -6 -603 -12 0 -5 246 -8 588 -7 670 3 645 0
729 83 90 89 83 -54 83 1714 0 1754 6 1622 -77 1711 -50 53 -97 73 -200 84
-43 5 -63 3 -63 -4 0 -7 21 -11 53 -11 60 0 115 -13 142 -35 16 -12 11 -12
-25 2 -41 17 -98 18 -720 18 -623 0 -678 -1 -714 -18 -22 -9 -41 -15 -44 -12
-3 2 12 13 34 22 36 16 91 18 637 21 380 1 597 6 597 12 0 14 -1897 14 -1905
0 -4 -7 109 -10 332 -11 266 0 334 -3 319 -12 -92 -57 -136 -134 -141 -246
l-4 -76 9 60 c10 62 36 141 49 149 4 3 0 -18 -10 -47 -17 -49 -18 -136 -18
-1607 0 -1476 1 -1558 18 -1607 22 -66 17 -68 -12 -5 l-22 47 -5 985 -6 985 1
-1000 0 -1000 29 -59 c20 -40 42 -68 73 -90 l45 -31 -379 -3 c-243 -1 -397 2
-430 9 -44 9 -63 20 -117 72 -48 46 -67 73 -76 105 -15 59 -17 3132 -1 3181
16 50 52 98 89 118 17 10 32 23 32 30 0 17 94 43 157 43 34 0 52 4 48 10 -7
11 -58 11 -126 0z m744 -161 c-17 -32 -18 -130 -21 -1614 -2 -1379 0 -1586 13
-1625 12 -38 12 -42 0 -26 -34 45 -35 105 -33 1666 l3 1545 24 48 c13 26 25
46 27 44 2 -2 -4 -19 -13 -38z m1626 -40 c15 -48 16 -3117 1 -3169 -5 -20 -17
-45 -25 -55 -11 -15 -11 -10 3 20 16 37 17 139 17 1615 l0 1575 -23 50 c-19
43 -19 46 -3 26 10 -14 24 -41 30 -62z m35 4 c14 -42 16 -204 16 -1588 0
-1353 -2 -1548 -15 -1593 -9 -28 -19 -54 -24 -57 -5 -3 -3 16 5 42 21 69 21
3137 0 3206 -18 60 -3 52 18 -10z m-259 -83 c3 -5 1 -10 -4 -10 -6 0 -11 5
-11 10 0 6 2 10 4 10 3 0 8 -4 11 -10z m158 -30 c-3 -11 -9 -20 -14 -20 -14 0
-11 28 4 33 6 3 13 6 14 6 0 1 -1 -8 -4 -19z m-581 -22 c-12 -13 -22 -17 -22
-11 0 15 31 46 38 38 3 -3 -4 -15 -16 -27z m475 2 c-6 -22 5 -25 34 -10 17 10
20 7 25 -20 4 -17 11 -33 15 -36 18 -10 9 -22 -16 -20 -19 1 -25 7 -25 24 0
19 -4 21 -24 16 -18 -4 -25 -1 -28 13 -5 25 2 53 14 53 6 0 8 -9 5 -20z m-211
-25 c-14 -14 -16 -14 -16 -2 0 9 6 17 13 20 19 7 21 -1 3 -18z m-47 -13 c10
-9 23 -26 29 -38 10 -19 8 -21 -18 -22 -21 0 -30 4 -30 15 0 13 -8 14 -47 8
-27 -4 -63 -6 -80 -6 -18 1 -45 -6 -60 -16 -15 -10 -30 -17 -33 -17 -3 1 -11
-1 -18 -4 -20 -7 -23 2 -10 36 10 25 17 30 33 26 12 -3 37 3 54 13 47 26 156
29 180 5z m211 -7 c0 -8 -4 -15 -9 -15 -13 0 -22 16 -14 24 11 11 23 6 23 -9z
m-61 -39 c-2 -2 -15 -7 -29 -10 l-25 -7 25 15 c21 12 42 14 29 2z m51 -11 c11
-13 10 -14 -4 -9 -9 3 -16 10 -16 15 0 13 6 11 20 -6z m-660 -45 c-6 -11 -15
-18 -21 -15 -15 10 -11 23 9 28 9 3 18 5 20 6 1 0 -2 -8 -8 -19z m166 -25 c-3
-9 -11 -13 -16 -10 -8 5 -7 11 1 21 14 18 24 11 15 -11z m-116 -45 c0 -5 -2
-10 -4 -10 -3 0 -8 5 -11 10 -3 6 -1 10 4 10 6 0 11 -4 11 -10z m215 -146 c5
-16 22 -49 38 -73 19 -29 23 -42 13 -38 -9 4 -16 2 -16 -4 0 -6 -5 -7 -12 -2
-21 13 -72 12 -83 -2 -5 -7 -23 -16 -40 -19 -19 -4 -25 -3 -16 2 9 7 10 12 2
16 -7 5 -9 22 -5 47 7 42 0 48 -28 22 -13 -11 -18 -12 -18 -3 0 9 -4 9 -12 2
-7 -5 -22 -6 -32 -2 -14 4 -16 9 -8 14 7 4 16 5 21 2 5 -3 11 1 15 9 6 17 39
20 66 5 14 -7 23 -6 34 5 9 9 17 11 21 5 10 -16 43 -31 49 -22 3 5 -2 21 -10
36 -17 34 -17 39 -1 34 6 -3 16 -18 22 -34z m165 -69 c0 -8 -7 -15 -16 -15
-14 0 -14 -3 -4 -15 17 -20 9 -27 -12 -11 -16 11 -16 15 -2 34 18 25 34 29 34
7z m310 -11 c0 -8 4 -13 9 -9 6 3 15 -5 22 -17 17 -33 47 -60 54 -48 3 6 4 14
0 19 -3 5 -1 13 5 16 8 5 10 -11 8 -48 -2 -30 -6 -53 -10 -50 -5 2 -8 13 -8
23 0 10 -9 21 -19 25 -11 3 -22 12 -25 20 -3 8 -12 12 -21 9 -10 -4 -15 0 -15
12 0 14 -3 15 -12 6 -8 -8 -8 -15 -1 -24 6 -7 13 -28 17 -47 5 -27 3 -31 -7
-22 -11 8 -18 2 -32 -27 -13 -26 -20 -32 -22 -20 -4 16 22 66 41 80 5 3 3 13
-6 22 -14 14 -16 13 -22 -7 -5 -18 -8 -19 -15 -7 -6 8 -6 19 -2 25 5 5 14 27
20 48 12 36 41 52 41 21z m-378 -39 c-2 -15 0 -25 7 -25 6 0 11 -14 11 -32 0
-17 -3 -28 -6 -25 -4 3 -16 0 -28 -8 -24 -18 -36 -19 -36 -4 0 5 5 7 10 4 6
-3 10 3 10 15 0 17 -4 19 -25 14 -28 -7 -32 4 -14 37 6 12 17 18 25 15 7 -3
18 3 24 14 15 28 28 25 22 -5z m218 -49 c0 -8 -4 -18 -10 -21 -5 -3 -10 3 -10
14 0 12 5 21 10 21 6 0 10 -6 10 -14z m93 -48 c8 -5 6 -11 -8 -22 -19 -14 -21
-13 -29 14 -5 16 -5 37 -1 47 6 16 8 15 16 -7 6 -13 15 -28 22 -32z m-677 16
c17 -14 17 -15 1 -10 -10 3 -23 6 -28 6 -5 0 -9 5 -9 10 0 14 13 12 36 -6z
m92 -5 c-2 -6 -8 -10 -13 -10 -5 0 -11 4 -13 10 -2 6 4 11 13 11 9 0 15 -5 13
-11z m-48 -24 c0 -14 -4 -25 -9 -25 -6 0 -8 36 -2 48 5 10 11 -2 11 -23z
m-116 0 c11 -8 26 -15 33 -15 7 0 28 -10 47 -22 30 -20 32 -23 17 -39 -9 -12
-19 -15 -26 -9 -5 5 -28 10 -50 12 -30 2 -40 -1 -40 -12 0 -10 10 -15 32 -15
17 0 44 -9 60 -21 50 -37 56 -38 49 -17 -5 15 0 25 17 36 22 14 27 14 53 1 23
-12 33 -13 51 -3 18 10 27 9 47 -4 20 -14 25 -14 29 -2 9 22 46 5 64 -29 23
-47 44 -66 70 -66 12 0 23 -4 23 -9 0 -8 22 -37 88 -116 9 -11 32 -42 51 -70
40 -58 57 -76 63 -69 3 2 11 -9 18 -26 7 -17 10 -33 7 -36 -3 -3 4 -15 15 -26
11 -11 17 -23 13 -26 -4 -4 -17 6 -30 22 -14 18 -29 27 -38 23 -11 -4 -19 3
-25 22 -16 44 -62 112 -72 106 -5 -3 -7 -13 -4 -23 4 -10 -4 -6 -20 11 -14 15
-26 33 -26 40 0 7 7 3 15 -7 8 -11 18 -17 21 -13 11 10 -16 37 -37 37 -11 0
-19 5 -19 11 0 6 -7 4 -15 -5 -9 -8 -23 -12 -33 -9 -9 3 -14 2 -9 -2 4 -5 -3
-19 -15 -32 l-22 -23 24 -17 23 -16 -22 -19 c-28 -22 -54 -11 -76 32 -19 36
-19 44 0 36 17 -6 21 9 4 19 -10 7 29 42 41 38 8 -2 4 118 -4 142 -5 16 -81
65 -101 65 -4 0 2 -13 11 -30 10 -16 21 -25 24 -20 3 5 6 -6 6 -26 l0 -36 -19
26 c-20 28 -44 44 -87 56 -25 7 -27 6 -22 -14 2 -11 12 -29 20 -39 31 -35 2
-27 -33 10 -28 30 -34 33 -24 13 9 -21 9 -23 -2 -12 -18 17 -29 15 -27 -5 4
-56 -1 -58 -42 -18 -22 22 -38 45 -36 52 3 7 1 15 -4 18 -6 4 -10 2 -10 -4 0
-6 -7 -8 -17 -4 -22 9 18 -47 72 -99 40 -39 27 -43 -25 -8 -14 9 -34 20 -44
24 -10 3 -16 9 -13 12 3 4 -10 23 -29 43 -28 29 -34 42 -29 65 4 21 2 27 -9
23 -10 -4 -12 0 -9 14 3 10 1 19 -3 19 -11 0 -39 -42 -36 -53 1 -5 -5 -6 -15
-3 -23 7 -40 -4 -44 -28 -2 -11 -10 -21 -17 -24 -8 -2 -10 2 -5 13 5 14 2 16
-16 10 -19 -6 -21 -4 -12 12 5 10 12 26 15 36 4 12 16 17 45 17 40 0 61 13 41
25 -21 13 -9 24 20 19 19 -4 30 -2 30 5 0 6 7 11 15 11 17 0 20 16 5 25 -14 9
-12 35 3 35 6 0 21 -7 31 -15z m461 5 c-3 -5 1 -10 10 -10 8 0 20 -12 25 -26
6 -14 14 -22 20 -19 11 7 13 -6 4 -30 -6 -14 -8 -13 -21 5 -8 11 -23 20 -34
20 -11 0 -27 6 -35 14 -19 19 -18 32 1 16 21 -17 32 -4 17 20 -10 17 -10 20 4
20 8 0 12 -4 9 -10z m-120 -60 c4 -6 -7 -10 -24 -10 -17 0 -31 5 -31 10 0 6
11 10 24 10 14 0 28 -4 31 -10z m73 -61 c2 -8 -1 -7 -8 3 -6 9 -17 15 -25 12
-10 -4 -15 0 -15 11 0 16 2 16 22 3 12 -8 24 -21 26 -29z m179 -21 c-3 -8 -6
-5 -6 6 -1 11 2 17 5 13 3 -3 4 -12 1 -19z m321 -163 c0 -16 -2 -24 -5 -17 -2
7 -13 17 -24 22 -16 9 -18 7 -16 -9 1 -11 -2 -19 -8 -18 -9 2 -10 18 -4 62 1
6 -2 19 -7 30 -6 16 -1 14 28 -10 27 -22 37 -38 36 -60z m-905 38 c15 -9 6
-21 -13 -16 -16 4 -19 2 -14 -11 3 -9 2 -16 -4 -16 -5 0 -12 7 -16 15 -3 8
-12 15 -21 15 -13 0 -14 2 -3 14 12 13 47 12 71 -1z m-278 -43 c3 -5 1 -10 -4
-10 -6 0 -11 5 -11 10 0 6 2 10 4 10 3 0 8 -4 11 -10z m460 -40 c3 -5 1 -10
-4 -10 -6 0 -11 5 -11 10 0 6 2 10 4 10 3 0 8 -4 11 -10z m725 -11 c0 -18 -2
-20 -15 -9 -13 11 -13 15 -3 21 18 12 18 12 18 -12z m-100 -33 c0 -7 18 -32
40 -55 22 -22 40 -43 40 -45 0 -9 -26 0 -49 16 -32 22 -54 6 -49 -34 5 -28 4
-28 -21 -11 -17 11 -26 13 -29 5 -7 -23 -32 -12 -32 14 0 21 3 24 14 15 17
-15 46 -4 46 18 0 9 7 27 16 39 9 13 13 29 10 37 -3 8 -1 15 4 15 6 0 10 -6
10 -14z m-883 -31 c21 -4 30 -11 27 -20 -3 -8 6 -21 21 -31 28 -19 28 -31 -2
-15 -19 10 -68 24 -93 25 -9 1 -16 13 -18 29 -3 24 0 28 15 24 10 -3 32 -8 50
-12z m977 -1 c9 -24 7 -28 -9 -14 -17 14 -20 30 -6 30 5 0 12 -7 15 -16z
m-330 -70 c4 -9 4 -19 2 -21 -8 -8 -26 8 -26 23 0 19 16 18 24 -2z m-689 -48
c19 -8 35 -20 35 -25 0 -16 -16 -13 -30 4 -7 8 -17 15 -22 15 -6 0 -5 -7 2
-15 12 -15 4 -20 -23 -16 -4 1 -11 -10 -16 -23 -8 -21 -29 -36 -50 -36 -3 0
-8 11 -9 25 -1 22 2 25 28 25 29 0 41 15 18 22 -16 6 -2 38 17 38 9 0 31 -7
50 -14z m380 -33 c34 -7 125 -79 125 -100 0 -12 -4 -11 -22 1 -28 20 -39 20
-32 1 8 -19 -22 -9 -50 16 -10 10 -24 15 -32 12 -8 -3 -14 1 -14 10 0 9 -12
30 -27 48 l-28 33 25 -8 c14 -4 38 -10 55 -13z m-535 -85 c0 -4 11 -8 24 -8
14 0 28 -5 32 -12 4 -7 3 -8 -5 -4 -6 4 -18 3 -24 -3 -16 -13 -72 43 -61 60 5
9 11 7 21 -6 7 -11 13 -22 13 -27z m505 -39 c11 -17 -1 -21 -15 -4 -8 9 -8 15
-2 15 6 0 14 -5 17 -11z m-54 -82 c37 -26 46 -53 14 -40 -9 3 -15 -1 -15 -11
0 -24 -32 -19 -63 10 -15 14 -32 22 -37 19 -6 -3 -10 -2 -10 3 0 5 -10 13 -22
16 -22 7 -22 7 -3 16 22 10 5 13 -19 4 -10 -4 -14 -14 -11 -28 4 -15 -3 -26
-20 -39 l-25 -18 0 39 c0 59 25 76 100 69 44 -5 60 -3 61 6 1 7 3 6 6 -3 2 -8
22 -27 44 -43z m84 33 c3 -5 1 -10 -4 -10 -6 0 -11 5 -11 10 0 6 2 10 4 10 3
0 8 -4 11 -10z m642 -36 c3 -8 1 -20 -4 -25 -7 -7 -12 -2 -15 15 -6 28 9 36
19 10z m-27 -15 c0 -6 -4 -7 -10 -4 -5 3 -10 11 -10 16 0 6 5 7 10 4 6 -3 10
-11 10 -16z m-72 -94 c-3 -3 -9 2 -12 12 -6 14 -5 15 5 6 7 -7 10 -15 7 -18z
m-987 -63 c8 -20 6 -21 -11 -12 -11 6 -20 18 -20 26 0 22 22 12 31 -14z m842
19 c25 -5 26 -8 15 -24 -11 -15 -17 -16 -45 -5 -18 7 -33 18 -33 25 0 14 17
15 63 4z m-104 -10 c7 -5 12 -14 10 -20 -3 -7 -11 -3 -21 9 -18 21 -13 26 11
11z m-770 -100 c-16 -35 -23 -40 -34 -31 -12 10 -12 14 1 28 9 8 20 26 25 40
6 16 13 22 19 16 7 -7 3 -25 -11 -53z m-29 19 c0 -5 -4 -10 -9 -10 -6 0 -13 5
-16 10 -3 6 1 10 9 10 9 0 16 -4 16 -10z m-1 -71 c17 -6 31 -15 31 -21 0 -6
-8 -7 -17 -3 -15 5 -16 4 -5 -6 29 -30 -7 -41 -42 -14 -11 8 -28 13 -38 9 -27
-8 -23 25 5 36 29 12 29 12 66 -1z m228 -145 c-3 -3 -12 -4 -19 -1 -8 3 -5 6
6 6 11 1 17 -2 13 -5z m534 -4 c10 0 19 -4 19 -10 0 -16 -47 -11 -61 7 -12 15
-12 16 4 10 10 -4 27 -7 38 -7z m-126 -80 c4 -6 18 -16 32 -21 14 -5 23 -12
20 -16 -4 -3 -27 2 -52 11 -57 22 -89 18 -93 -11 -2 -13 -6 -23 -10 -23 -14 0
-62 70 -62 91 0 17 4 20 24 15 14 -3 28 -2 31 4 6 10 99 -31 110 -50z m-445
25 c0 -8 -7 -15 -15 -15 -8 0 -15 7 -15 15 0 8 7 15 15 15 8 0 15 -7 15 -15z
m300 -340 c-7 -8 -9 -15 -4 -15 4 0 -1 -7 -12 -15 -25 -19 -48 -19 -40 0 3 9
1 15 -7 14 -26 -3 -47 1 -47 10 0 11 29 18 84 20 33 1 37 -1 26 -14z m-127
-112 c4 -7 15 -13 22 -13 32 0 13 -20 -25 -26 -23 -4 -37 -11 -33 -17 4 -6 1
-7 -7 -2 -10 6 -7 12 10 25 19 15 20 18 6 23 -9 4 -22 4 -30 1 -19 -7 -32 16
-15 27 18 11 62 0 72 -18z m-83 -78 c0 -1 -9 -5 -20 -8 -12 -3 -20 0 -20 8 0
8 8 11 20 8 11 -3 20 -7 20 -8z"/>
<path d="M2970 3362 c0 -5 7 -16 16 -23 14 -12 16 -11 13 5 -4 20 -29 35 -29
18z"/>
<path d="M3090 2881 c0 -23 16 -36 23 -18 2 6 -2 18 -9 25 -12 11 -14 9 -14
-7z"/>
<path d="M2773 2410 c14 -11 29 -20 33 -20 4 0 -1 9 -11 20 -10 11 -25 20 -33
20 -9 0 -6 -7 11 -20z"/>
<path d="M1246 3970 c-42 -13 -85 -58 -97 -102 -25 -95 52 -198 148 -198 40 0
96 31 99 55 1 11 9 37 17 59 26 71 -8 143 -79 166 -19 7 -34 16 -34 21 0 11
-15 10 -54 -1z"/>
<path d="M1571 3753 c-43 -21 -71 -67 -71 -117 0 -31 7 -45 39 -77 33 -34 45
-39 83 -39 68 0 128 58 128 122 0 37 -34 90 -71 110 -41 22 -64 22 -108 1z"/>
<path d="M1885 3420 c0 -195 1 -275 2 -178 2 98 2 258 0 355 -1 98 -2 18 -2
-177z"/>
<path d="M1201 3564 c-32 -23 -60 -89 -54 -128 16 -104 124 -165 213 -119 19
10 34 21 32 26 -1 4 4 20 13 37 17 34 20 99 4 132 -25 54 -114 81 -173 54 -14
-7 -17 -6 -12 2 10 16 5 15 -23 -4z"/>
<path d="M1505 3540 c10 -11 20 -20 23 -20 3 0 -3 9 -13 20 -10 11 -20 20 -23
20 -3 0 3 -9 13 -20z"/>
<path d="M1878 2953 c5 -200 8 -219 10 -55 1 89 -1 162 -5 162 -5 0 -7 -48 -5
-107z"/>
</g>
</svg>
