<?xml version="1.0" encoding="UTF-8" standalone="no"?>
<svg
   xmlns:dc="http://purl.org/dc/elements/1.1/"
   xmlns:cc="http://creativecommons.org/ns#"
   xmlns:rdf="http://www.w3.org/1999/02/22-rdf-syntax-ns#"
   xmlns:svg="http://www.w3.org/2000/svg"
   xmlns="http://www.w3.org/2000/svg"
   xmlns:sodipodi="http://sodipodi.sourceforge.net/DTD/sodipodi-0.dtd"
   xmlns:inkscape="http://www.inkscape.org/namespaces/inkscape"
   version="1.0"
   width="360.00006"
   height="360.00006"
   viewBox="0 0 288.00005 288.00005"
   preserveAspectRatio="xMidYMid meet"
   id="svg2985"
   inkscape:version="0.48.4 r9939"
   sodipodi:docname="flower petal 3 combo 8 petal template.svg">
  <defs
     id="defs2995" />
  <sodipodi:namedview
     pagecolor="#ffffff"
     bordercolor="#666666"
     borderopacity="1"
     objecttolerance="10"
     gridtolerance="10"
     guidetolerance="10"
     inkscape:pageopacity="0"
     inkscape:pageshadow="2"
     inkscape:window-width="1680"
     inkscape:window-height="1000"
     id="namedview2993"
     showgrid="false"
     fit-margin-top="0"
     fit-margin-left="0"
     fit-margin-right="0"
     fit-margin-bottom="0"
     inkscape:zoom="1.5487122"
     inkscape:cx="13.684322"
     inkscape:cy="151.93425"
     inkscape:window-x="-8"
     inkscape:window-y="-8"
     inkscape:window-maximized="1"
     inkscape:current-layer="svg2985" />
  <metadata
     id="metadata2987">
Created by potrace 1.11, written by Peter Selinger 2001-2013
<rdf:RDF>
  <cc:Work
     rdf:about="">
    <dc:format>image/svg+xml</dc:format>
    <dc:type
       rdf:resource="http://purl.org/dc/dcmitype/StillImage" />
    <dc:title></dc:title>
  </cc:Work>
</rdf:RDF>
</metadata>
  <g
     transform="matrix(0.02517483,0,0,-0.02517483,0,288.00006)"
     id="g2989"
     style="fill:#000000;stroke:none">
    <path
       d="m 4970,11420 c 0,-18 -7,-20 -60,-20 -53,0 -60,-2 -60,-20 0,-17 -7,-20 -40,-20 -33,0 -40,-3 -40,-20 0,-13 -7,-20 -20,-20 -13,0 -20,-7 -20,-20 0,-13 -7,-20 -20,-20 -13,0 -20,-7 -20,-20 0,-13 -7,-20 -20,-20 -17,0 -20,-7 -20,-40 0,-33 -3,-40 -20,-40 -17,0 -20,-7 -20,-40 0,-33 -3,-40 -20,-40 -17,0 -20,-7 -20,-40 0,-33 -3,-40 -20,-40 -18,0 -20,-7 -20,-60 0,-53 -2,-60 -20,-60 -19,0 -20,-7 -20,-100 0,-93 -1,-100 -20,-100 -20,0 -20,-7 -20,-560 0,-553 0,-560 20,-560 19,0 20,-7 20,-120 0,-113 1,-120 20,-120 19,0 20,-7 20,-100 0,-93 1,-100 20,-100 18,0 20,-7 20,-60 0,-53 2,-60 20,-60 18,0 20,-7 20,-80 0,-73 2,-80 20,-80 18,0 20,-7 20,-85 0,-78 2,-85 20,-85 18,0 20,-7 20,-60 0,-53 2,-60 20,-60 18,0 20,-7 20,-80 0,-73 2,-80 20,-80 18,0 20,-7 20,-60 0,-53 2,-60 20,-60 18,0 20,-7 20,-80 0,-73 2,-80 20,-80 18,0 20,-7 20,-60 0,-53 2,-60 20,-60 18,0 20,-7 20,-60 0,-53 2,-60 20,-60 18,0 20,-7 20,-60 0,-53 2,-60 20,-60 18,0 20,-7 20,-80 0,-73 2,-80 20,-80 18,0 20,-7 20,-60 0,-53 2,-60 20,-60 18,0 20,-7 20,-60 0,-52 3,-60 19,-60 15,0 19,-10 23,-52 3,-31 12,-56 22,-63 10,-8 16,-27 16,-54 0,-28 6,-47 20,-61 11,-11 20,-31 20,-45 0,-26 0,-26 -35,9 -24,24 -35,45 -35,64 0,15 -9,38 -20,50 -11,12 -20,28 -20,36 0,17 -39,87 -53,97 -6,4 -7,18 -3,32 4,19 -1,32 -24,57 -20,21 -28,39 -25,51 4,12 -6,30 -32,55 -22,22 -32,39 -25,42 24,8 11,34 -38,82 -50,48 -62,74 -37,83 7,2 -6,21 -33,47 -27,26 -40,45 -32,47 23,8 12,34 -30,75 -26,25 -38,43 -30,45 21,8 13,34 -18,63 -31,29 -39,55 -18,62 7,3 -15,31 -51,67 -47,46 -61,65 -51,71 10,6 2,19 -31,51 -26,25 -39,44 -31,46 24,9 11,35 -40,85 -31,30 -48,53 -40,56 23,7 12,33 -30,74 -26,25 -38,43 -30,45 24,9 11,35 -40,85 -31,30 -48,53 -40,56 24,8 11,34 -40,84 -38,37 -48,52 -38,58 10,6 3,18 -28,48 -42,41 -53,67 -30,74 7,3 -20,37 -62,78 -42,41 -69,75 -62,78 24,8 11,34 -47,90 -33,31 -70,65 -83,76 -15,12 -19,20 -10,23 6,3 12,10 12,16 0,16 -771,787 -787,787 -6,0 -13,-6 -15,-12 -3,-7 -37,20 -78,62 -41,42 -75,69 -78,62 -7,-23 -33,-12 -74,31 -25,25 -43,37 -45,30 -7,-20 -37,-15 -53,7 -8,11 -25,20 -39,20 -13,0 -33,10 -44,23 -13,15 -21,18 -24,10 -7,-20 -37,-15 -53,7 -16,22 -45,26 -54,8 -5,-10 -7,-10 -12,0 -3,6 -14,12 -24,12 -10,0 -21,-6 -24,-12 -5,-10 -7,-10 -12,0 -3,6 -14,12 -24,12 -10,0 -21,-6 -23,-12 -4,-10 -8,-9 -16,2 -8,12 -13,11 -29,-8 -21,-24 -48,-29 -55,-9 -2,7 -20,-5 -45,-30 -25,-27 -49,-43 -64,-43 -13,0 -30,-10 -38,-22 -8,-11 -48,-55 -89,-96 -53,-53 -70,-76 -61,-82 10,-6 2,-20 -31,-51 -26,-25 -39,-44 -31,-46 19,-7 14,-37 -8,-53 -11,-8 -20,-26 -20,-41 0,-15 -6,-30 -12,-33 -10,-5 -10,-7 0,-12 6,-3 12,-18 12,-34 0,-16 6,-31 13,-34 9,-5 9,-7 0,-12 -17,-7 -17,-41 0,-47 7,-2 -5,-20 -31,-45 -42,-40 -53,-67 -30,-74 8,-3 2,-15 -17,-33 -18,-19 -30,-25 -33,-17 -7,23 -34,12 -74,-30 -25,-26 -43,-38 -45,-30 -3,6 -13,12 -23,12 -10,0 -21,-6 -24,-12 -5,-10 -7,-10 -12,0 -3,6 -18,12 -34,12 -16,0 -31,6 -34,13 -5,10 -7,10 -12,0 -3,-7 -18,-13 -33,-13 -15,0 -33,-9 -41,-20 -16,-22 -46,-27 -53,-7 -2,7 -21,-6 -46,-32 -31,-33 -45,-41 -51,-31 -6,9 -29,-8 -82,-61 -41,-41 -85,-81 -96,-89 -12,-8 -22,-25 -22,-38 0,-15 -16,-39 -43,-64 -25,-25 -37,-43 -29,-45 19,-7 14,-34 -10,-55 -19,-16 -20,-21 -8,-29 11,-8 12,-12 3,-16 -7,-2 -13,-13 -13,-23 0,-10 6,-21 13,-24 9,-5 9,-7 -1,-12 -16,-7 -16,-41 1,-48 9,-5 9,-7 0,-12 -19,-9 -15,-38 7,-54 22,-16 27,-46 8,-53 -9,-3 -6,-11 10,-24 24,-22 29,-49 10,-56 -8,-2 0,-16 21,-36 27,-25 32,-34 21,-41 -10,-6 -3,-18 28,-48 42,-41 53,-67 30,-74 -7,-3 20,-37 62,-78 42,-41 69,-75 62,-78 -6,-2 -12,-9 -12,-15 0,-16 771,-787 787,-787 6,0 13,6 16,13 3,8 11,4 23,-11 11,-13 45,-50 76,-83 56,-58 82,-71 90,-47 3,7 37,-20 78,-62 41,-42 75,-69 78,-62 6,18 42,15 42,-3 0,-20 44,-65 64,-65 8,0 16,6 18,12 3,8 26,-9 56,-40 50,-51 76,-64 84,-40 3,8 26,-9 56,-40 50,-51 76,-64 85,-39 2,7 20,-5 45,-30 41,-43 67,-54 74,-31 3,8 26,-9 56,-40 50,-51 76,-64 85,-39 2,7 21,-6 46,-32 32,-33 45,-41 51,-31 6,10 25,-4 71,-51 36,-36 64,-58 67,-51 7,21 33,13 62,-18 29,-31 55,-39 63,-17 2,7 20,-5 45,-30 41,-43 67,-54 75,-30 2,7 21,-6 47,-33 26,-27 45,-40 47,-32 9,24 35,12 83,-38 48,-49 74,-62 82,-38 3,7 20,-3 42,-25 25,-26 43,-36 55,-32 12,3 30,-5 51,-25 23,-22 38,-28 55,-24 17,4 32,-2 56,-25 21,-20 42,-31 61,-31 25,0 78,-37 78,-55 0,-14 -93,-3 -125,15 -20,11 -49,20 -65,20 -20,0 -30,5 -30,15 0,12 -13,15 -60,15 -53,0 -60,2 -60,20 0,18 -7,20 -60,20 -53,0 -60,2 -60,20 0,18 -7,20 -80,20 -73,0 -80,2 -80,20 0,18 -7,20 -60,20 -53,0 -60,2 -60,20 0,18 -7,20 -60,20 -53,0 -60,2 -60,20 0,18 -7,20 -55,20 -48,0 -55,2 -55,20 0,18 -7,20 -80,20 -73,0 -80,2 -80,20 0,18 -7,20 -60,20 -53,0 -60,2 -60,20 0,18 -7,20 -80,20 -73,0 -80,2 -80,20 0,18 -7,20 -60,20 -53,0 -60,2 -60,20 0,18 -7,20 -80,20 -73,0 -80,2 -80,20 0,18 -7,20 -80,20 -73,0 -80,2 -80,20 0,18 -7,20 -60,20 -53,0 -60,2 -60,20 0,19 -7,20 -100,20 -93,0 -100,1 -100,20 0,19 -7,20 -115,20 -108,0 -115,1 -115,20 0,20 -7,20 -560,20 -553,0 -560,0 -560,-20 0,-19 -7,-20 -95,-20 -88,0 -95,-1 -95,-20 0,-18 -7,-20 -60,-20 -53,0 -60,-2 -60,-20 0,-17 -7,-20 -40,-20 -33,0 -40,-3 -40,-20 0,-17 -7,-20 -40,-20 -33,0 -40,-3 -40,-20 0,-17 -7,-20 -40,-20 -33,0 -40,-3 -40,-20 0,-13 -7,-20 -20,-20 -13,0 -20,-7 -20,-20 0,-13 -7,-20 -20,-20 -13,0 -20,-7 -20,-20 0,-13 -7,-20 -20,-20 -17,0 -20,-7 -20,-40 0,-33 -3,-40 -20,-40 -18,0 -20,-7 -20,-60 0,-53 -2,-60 -20,-60 -19,0 -20,-7 -20,-135 0,-128 1,-135 20,-135 18,0 20,-7 20,-60 0,-53 2,-60 20,-60 17,0 20,-7 20,-40 0,-33 3,-40 20,-40 13,0 20,-7 20,-20 0,-13 7,-20 20,-20 13,0 20,-7 20,-20 0,-13 7,-20 20,-20 13,0 20,-7 20,-20 0,-13 7,-20 20,-20 18,0 20,-7 20,-60 0,-53 2,-60 20,-60 17,0 20,-7 20,-40 0,-33 -3,-40 -20,-40 -18,0 -20,-7 -20,-60 0,-53 -2,-60 -20,-60 -13,0 -20,-7 -20,-20 0,-13 -7,-20 -20,-20 -13,0 -20,-7 -20,-20 0,-13 -7,-20 -20,-20 -13,0 -20,-7 -20,-20 0,-13 -7,-20 -20,-20 -17,0 -20,-7 -20,-40 0,-33 -3,-40 -20,-40 -18,0 -20,-7 -20,-60 0,-53 -2,-60 -20,-60 -19,0 -20,-7 -20,-135 0,-128 1,-135 20,-135 18,0 20,-7 20,-60 0,-53 2,-60 20,-60 17,0 20,-7 20,-40 0,-33 3,-40 20,-40 13,0 20,-7 20,-20 0,-13 7,-20 20,-20 13,0 20,-7 20,-20 0,-13 7,-20 20,-20 13,0 20,-7 20,-20 0,-17 7,-20 40,-20 33,0 40,-3 40,-20 0,-17 7,-20 40,-20 33,0 40,-3 40,-20 0,-17 7,-20 40,-20 33,0 40,-3 40,-20 0,-18 7,-20 60,-20 53,0 60,-2 60,-20 0,-19 7,-20 95,-20 88,0 95,-1 95,-20 0,-20 7,-20 560,-20 553,0 560,0 560,20 0,19 7,20 115,20 108,0 115,1 115,20 0,19 7,20 100,20 93,0 100,1 100,20 0,18 7,20 60,20 53,0 60,2 60,20 0,18 7,20 80,20 73,0 80,2 80,20 0,18 7,20 80,20 73,0 80,2 80,20 0,18 7,20 60,20 53,0 60,2 60,20 0,18 7,20 80,20 73,0 80,2 80,20 0,18 7,20 60,20 53,0 60,2 60,20 0,18 7,20 80,20 73,0 80,2 80,20 0,18 7,20 55,20 48,0 55,2 55,20 0,18 7,20 60,20 53,0 60,2 60,20 0,18 7,20 60,20 53,0 60,2 60,20 0,18 7,20 80,20 73,0 80,2 80,20 0,18 7,20 60,20 53,0 60,2 60,20 0,18 7,20 60,20 53,0 60,2 60,20 0,18 7,20 60,20 47,0 60,3 60,15 0,12 13,15 55,15 l 56,0 -35,-35 c -25,-25 -44,-35 -67,-35 -22,0 -39,-9 -60,-31 -22,-24 -35,-30 -53,-25 -18,4 -32,-2 -56,-24 -21,-20 -39,-28 -51,-25 -12,4 -30,-6 -55,-32 -22,-22 -39,-32 -42,-25 -8,24 -34,11 -82,-38 -48,-50 -74,-62 -83,-37 -2,7 -21,-6 -47,-33 -26,-27 -45,-40 -47,-32 -5,14 -43,17 -43,3 0,-17 -63,-76 -67,-63 -8,21 -34,13 -63,-18 -29,-31 -55,-39 -62,-18 -3,7 -31,-15 -67,-51 -46,-47 -65,-61 -71,-51 -6,10 -19,2 -51,-31 -25,-26 -44,-39 -46,-31 -9,24 -35,11 -85,-40 -30,-31 -53,-48 -56,-40 -7,23 -33,12 -74,-31 -25,-25 -43,-37 -45,-29 -9,24 -35,11 -85,-40 -30,-31 -53,-48 -56,-40 -8,24 -34,11 -84,-40 -30,-31 -53,-48 -56,-40 -7,23 -33,12 -74,-30 -29,-31 -42,-38 -48,-28 -6,9 -28,-7 -81,-61 -41,-41 -74,-68 -77,-61 -8,26 -36,9 -113,-69 -62,-63 -83,-79 -90,-68 -6,11 -106,-83 -399,-376 -214,-214 -390,-395 -390,-402 0,-6 6,-13 12,-15 7,-3 -20,-37 -62,-78 -42,-41 -69,-75 -62,-78 23,-7 12,-33 -30,-74 -31,-30 -38,-42 -28,-48 11,-7 6,-16 -21,-41 -21,-20 -29,-34 -21,-36 19,-7 14,-34 -10,-56 -16,-13 -19,-21 -10,-24 19,-7 14,-37 -8,-53 -22,-16 -26,-45 -7,-54 9,-5 9,-7 0,-12 -7,-3 -13,-14 -13,-24 0,-10 6,-21 13,-24 9,-5 9,-7 0,-12 -17,-7 -17,-41 -1,-47 10,-4 9,-8 -2,-16 -12,-8 -11,-13 8,-29 24,-21 29,-48 10,-55 -8,-2 4,-20 29,-45 27,-25 43,-49 43,-64 0,-13 10,-30 22,-38 11,-8 55,-48 96,-89 53,-53 76,-70 82,-61 6,10 20,2 51,-31 25,-26 44,-39 46,-31 7,19 37,14 53,-8 8,-11 26,-20 41,-20 15,0 30,-6 33,-12 5,-10 7,-10 12,0 3,6 18,12 34,12 16,0 31,6 34,13 5,10 7,10 12,0 3,-7 12,-13 19,-13 7,0 15,6 18,13 2,7 20,-5 45,-31 40,-42 67,-53 74,-30 3,8 15,2 33,-17 19,-18 25,-30 17,-33 -23,-7 -12,-34 31,-74 25,-25 37,-43 30,-45 -17,-6 -17,-40 0,-47 9,-5 9,-7 0,-12 -7,-3 -13,-18 -13,-34 0,-16 -6,-31 -12,-34 -10,-5 -10,-7 0,-12 6,-3 12,-18 12,-33 0,-15 9,-33 20,-41 22,-16 27,-46 8,-53 -8,-2 5,-21 31,-46 33,-31 41,-45 31,-51 -18,-11 172,-200 201,-200 11,0 39,-19 61,-43 25,-25 43,-37 45,-29 7,19 34,14 55,-10 16,-19 21,-20 29,-8 8,11 12,12 16,3 2,-7 13,-13 23,-13 10,0 21,6 24,13 5,9 7,9 12,0 3,-7 14,-13 24,-13 10,0 21,6 24,13 5,9 7,9 12,0 9,-19 38,-15 54,7 16,22 46,27 53,8 3,-9 11,-6 24,9 22,25 49,30 56,11 2,-8 16,0 36,21 25,27 34,32 41,21 6,-10 18,-3 48,28 41,42 67,53 74,30 3,-7 37,20 78,62 41,42 75,69 78,62 2,-6 9,-12 16,-12 17,0 776,767 776,785 0,7 -6,15 -12,18 -9,3 -5,11 10,23 13,11 50,45 83,76 58,56 71,82 47,90 -7,3 20,36 61,77 54,53 70,75 61,81 -10,6 -3,19 28,48 42,41 53,67 30,74 -8,3 9,26 40,56 51,50 64,76 40,84 -8,3 9,26 40,56 51,50 64,76 40,85 -8,2 4,20 30,45 42,41 53,67 30,74 -8,3 9,26 40,56 51,50 64,76 40,85 -8,2 5,21 31,46 33,32 41,45 31,51 -10,6 4,25 51,71 36,36 58,64 51,67 -21,7 -13,33 18,62 31,29 39,55 18,63 -8,2 4,20 30,45 42,41 53,67 30,75 -8,2 5,21 32,47 27,26 40,45 33,47 -25,9 -13,35 37,83 50,48 62,74 38,83 -8,2 5,21 31,46 33,32 41,45 31,51 -9,6 -4,17 24,44 29,29 35,42 30,61 -5,20 1,31 25,54 22,21 31,38 31,60 0,21 9,41 26,58 18,18 24,33 21,51 -3,17 2,32 19,49 30,30 34,29 34,-9 0,-36 -20,-98 -32,-98 -4,0 -8,-15 -8,-33 0,-21 -7,-36 -20,-45 -16,-9 -20,-23 -20,-62 0,-38 -4,-50 -15,-50 -12,0 -15,-13 -15,-60 0,-53 -2,-60 -20,-60 -18,0 -20,-7 -20,-60 0,-53 -2,-60 -20,-60 -18,0 -20,-7 -20,-80 0,-73 -2,-80 -20,-80 -18,0 -20,-7 -20,-60 0,-53 -2,-60 -20,-60 -18,0 -20,-7 -20,-60 0,-53 -2,-60 -20,-60 -18,0 -20,-7 -20,-55 0,-48 -2,-55 -20,-55 -18,0 -20,-7 -20,-80 0,-73 -2,-80 -20,-80 -18,0 -20,-7 -20,-60 0,-53 -2,-60 -20,-60 -18,0 -20,-7 -20,-80 0,-73 -2,-80 -20,-80 -18,0 -20,-7 -20,-60 0,-53 -2,-60 -20,-60 -18,0 -20,-7 -20,-80 0,-73 -2,-80 -20,-80 -18,0 -20,-7 -20,-80 0,-73 -2,-80 -20,-80 -18,0 -20,-7 -20,-60 0,-53 -2,-60 -20,-60 -19,0 -20,-7 -20,-100 0,-93 -1,-100 -20,-100 -19,0 -20,-7 -20,-115 0,-108 -1,-115 -20,-115 -20,0 -20,-7 -20,-560 0,-553 0,-560 20,-560 19,0 20,-7 20,-95 0,-88 1,-95 20,-95 18,0 20,-7 20,-60 0,-53 2,-60 20,-60 17,0 20,-7 20,-40 0,-33 3,-40 20,-40 17,0 20,-7 20,-40 0,-33 3,-40 20,-40 17,0 20,-7 20,-40 0,-33 3,-40 20,-40 13,0 20,-7 20,-20 0,-13 7,-20 20,-20 13,0 20,-7 20,-20 0,-13 7,-20 20,-20 13,0 20,-7 20,-20 0,-17 7,-20 40,-20 33,0 40,-3 40,-20 0,-18 7,-20 60,-20 47,0 60,-3 60,-15 0,-13 22,-15 135,-15 113,0 135,2 135,15 0,12 13,15 60,15 53,0 60,2 60,20 0,17 7,20 40,20 33,0 40,3 40,20 0,13 7,20 20,20 13,0 20,7 20,20 0,13 7,20 20,20 13,0 20,7 20,20 0,13 7,20 20,20 13,0 20,7 20,20 0,18 7,20 60,20 53,0 60,2 60,20 0,17 7,20 40,20 33,0 40,-3 40,-20 0,-18 7,-20 60,-20 53,0 60,-2 60,-20 0,-13 7,-20 20,-20 13,0 20,-7 20,-20 0,-13 7,-20 20,-20 13,0 20,-7 20,-20 0,-13 7,-20 20,-20 13,0 20,-7 20,-20 0,-17 7,-20 40,-20 33,0 40,-3 40,-20 0,-18 7,-20 60,-20 47,0 60,-3 60,-15 0,-13 22,-15 135,-15 113,0 135,2 135,15 0,12 13,15 60,15 53,0 60,2 60,20 0,17 7,20 40,20 33,0 40,3 40,20 0,13 7,20 20,20 13,0 20,7 20,20 0,13 7,20 20,20 13,0 20,7 20,20 0,13 7,20 20,20 17,0 20,7 20,40 0,33 3,40 20,40 17,0 20,7 20,40 0,33 3,40 20,40 17,0 20,7 20,40 0,33 3,40 20,40 18,0 20,7 20,60 0,53 2,60 20,60 19,0 20,7 20,95 0,88 1,95 20,95 20,0 20,7 20,560 0,553 0,560 -20,560 -19,0 -20,7 -20,115 0,108 -1,115 -20,115 -19,0 -20,7 -20,100 0,93 -1,100 -20,100 -18,0 -20,7 -20,60 0,53 -2,60 -20,60 -18,0 -20,7 -20,80 0,73 -2,80 -20,80 -18,0 -20,7 -20,80 0,73 -2,80 -20,80 -18,0 -20,7 -20,60 0,53 -2,60 -20,60 -18,0 -20,7 -20,80 0,73 -2,80 -20,80 -18,0 -20,7 -20,60 0,53 -2,60 -20,60 -18,0 -20,7 -20,80 0,73 -2,80 -20,80 -18,0 -20,7 -20,55 0,48 -2,55 -20,55 -18,0 -20,7 -20,60 0,53 -2,60 -20,60 -18,0 -20,7 -20,60 0,53 -2,60 -20,60 -18,0 -20,7 -20,80 0,73 -2,80 -20,80 -18,0 -20,7 -20,60 0,53 -2,60 -20,60 -18,0 -20,7 -20,60 0,53 -2,60 -20,60 -18,0 -20,7 -20,60 0,47 -3,60 -15,60 -10,0 -15,11 -15,35 0,37 -18,85 -32,85 -4,0 -8,23 -8,50 l 0,51 33,-33 c 22,-23 32,-43 33,-66 1,-20 10,-39 24,-52 16,-14 21,-26 16,-44 -5,-20 1,-33 30,-61 19,-19 34,-43 33,-53 -3,-29 0,-36 26,-66 15,-18 23,-36 20,-47 -4,-12 7,-30 32,-55 22,-22 32,-39 25,-42 -24,-8 -11,-34 39,-83 42,-41 50,-54 45,-74 -5,-19 2,-32 31,-61 22,-23 32,-39 25,-42 -23,-7 -12,-34 31,-74 25,-25 37,-43 30,-45 -22,-8 -14,-34 17,-63 31,-29 39,-55 18,-62 -7,-3 15,-31 51,-67 47,-46 61,-65 51,-71 -10,-6 -2,-19 31,-51 26,-25 39,-44 32,-46 -25,-9 -12,-35 39,-85 31,-30 48,-53 40,-56 -23,-7 -12,-33 31,-74 25,-25 37,-43 30,-45 -25,-9 -12,-35 39,-85 31,-30 48,-53 40,-56 -24,-8 -11,-34 40,-84 31,-30 48,-53 40,-56 -23,-7 -12,-33 30,-74 31,-29 38,-42 28,-48 -9,-6 7,-28 61,-81 41,-41 68,-74 61,-77 -24,-8 -11,-34 47,-90 33,-31 70,-65 83,-76 15,-12 19,-20 11,-23 -7,-3 -13,-11 -13,-19 0,-18 766,-784 784,-784 8,0 16,6 18,12 3,7 37,-20 78,-62 41,-42 75,-69 78,-62 7,23 33,12 74,-30 30,-31 42,-38 48,-28 7,11 16,6 41,-21 20,-21 34,-29 36,-21 7,19 34,14 56,-10 13,-16 21,-19 24,-10 7,19 37,14 53,-8 16,-22 45,-26 54,-7 5,9 7,9 12,0 3,-7 14,-13 24,-13 10,0 21,6 24,13 5,9 7,9 12,0 7,-17 41,-17 47,0 4,9 8,8 16,-3 8,-12 13,-11 29,8 21,24 48,29 55,10 2,-8 20,4 45,29 25,27 49,43 64,43 13,0 30,10 38,22 8,11 48,55 89,96 53,53 70,76 61,82 -10,6 -2,20 31,51 26,25 39,44 32,46 -20,7 -15,37 7,53 11,8 20,26 20,41 0,15 6,30 12,33 10,5 11,7 1,12 -7,3 -13,18 -13,34 0,16 -6,31 -12,34 -10,5 -10,7 0,12 16,7 16,41 0,47 -8,2 4,20 30,45 42,40 53,67 30,74 -8,3 -2,15 17,33 18,19 30,25 33,17 7,-23 34,-12 74,31 25,25 43,37 45,30 3,-7 13,-13 23,-13 10,0 21,6 24,13 5,10 7,10 12,0 3,-7 18,-13 34,-13 16,0 31,-6 34,-12 5,-11 7,-11 12,0 3,6 18,12 33,12 15,0 33,9 41,20 16,22 46,27 53,8 2,-8 21,5 46,31 31,33 45,41 51,31 6,-9 29,8 82,61 41,41 85,81 96,89 12,8 22,25 22,38 0,15 16,39 43,64 25,25 37,43 30,45 -20,7 -15,34 9,55 19,16 20,21 8,29 -11,8 -12,12 -2,16 6,2 12,13 12,23 0,10 -6,21 -12,24 -10,5 -10,7 0,12 6,3 12,14 12,24 0,10 -6,21 -12,24 -10,5 -10,7 0,12 18,9 14,38 -8,54 -22,16 -27,46 -7,53 8,3 5,11 -10,24 -25,22 -30,49 -10,56 7,2 -1,16 -22,36 -27,25 -32,34 -21,41 10,6 3,18 -28,48 -42,41 -53,67 -30,74 7,3 -20,37 -62,78 -42,41 -69,75 -62,78 6,2 12,9 12,15 0,16 -771,787 -787,787 -6,0 -13,-6 -16,-12 -3,-9 -11,-5 -23,10 -11,13 -45,50 -76,83 -56,58 -82,71 -90,47 -3,-7 -36,20 -77,61 -53,54 -75,70 -81,61 -6,-10 -19,-3 -48,28 -41,42 -67,53 -74,30 -3,-8 -26,9 -56,40 -50,51 -76,64 -84,40 -3,-8 -26,9 -56,40 -50,51 -76,64 -85,40 -2,-8 -20,4 -45,29 -41,43 -67,54 -74,31 -3,-8 -26,9 -56,40 -50,51 -76,64 -85,40 -2,-8 -21,5 -46,31 -32,33 -45,41 -51,31 -6,-10 -25,4 -71,51 -36,36 -64,58 -67,51 -7,-21 -33,-13 -62,18 -29,31 -55,39 -63,18 -2,-8 -20,4 -45,29 -41,43 -67,54 -75,31 -2,-8 -21,5 -47,32 -26,27 -45,40 -47,33 -9,-25 -35,-13 -83,37 -48,49 -74,62 -82,38 -3,-7 -20,3 -42,25 -26,26 -43,36 -56,32 -12,-4 -27,3 -44,20 -16,16 -36,25 -57,25 -22,0 -39,9 -59,30 -20,21 -37,30 -60,30 -20,0 -39,8 -50,20 -10,12 -32,22 -51,23 -23,1 -45,13 -67,35 l -33,32 45,0 c 35,0 45,-4 49,-20 4,-17 14,-20 61,-20 43,0 56,-3 56,-15 0,-12 13,-15 60,-15 53,0 60,-2 60,-20 0,-18 7,-20 60,-20 53,0 60,-2 60,-20 0,-18 7,-20 60,-20 53,0 60,-2 60,-20 0,-18 7,-20 80,-20 73,0 80,-2 80,-20 0,-18 7,-20 60,-20 53,0 60,-2 60,-20 0,-18 7,-20 60,-20 53,0 60,-2 60,-20 0,-18 7,-20 55,-20 48,0 55,-2 55,-20 0,-18 7,-20 80,-20 73,0 80,-2 80,-20 0,-18 7,-20 60,-20 53,0 60,-2 60,-20 0,-18 7,-20 80,-20 73,0 80,-2 80,-20 0,-18 7,-20 60,-20 53,0 60,-2 60,-20 0,-18 7,-20 80,-20 73,0 80,-2 80,-20 0,-18 7,-20 80,-20 73,0 80,-2 80,-20 0,-18 7,-20 60,-20 53,0 60,-2 60,-20 0,-19 7,-20 100,-20 93,0 100,-1 100,-20 0,-19 7,-20 115,-20 108,0 115,-1 115,-20 0,-20 7,-20 560,-20 553,0 560,0 560,20 0,19 7,20 95,20 88,0 95,1 95,20 0,18 7,20 60,20 53,0 60,2 60,20 0,17 7,20 40,20 33,0 40,3 40,20 0,17 7,20 40,20 33,0 40,3 40,20 0,17 7,20 40,20 33,0 40,3 40,20 0,13 7,20 20,20 13,0 20,7 20,20 0,13 7,20 20,20 13,0 20,7 20,20 0,13 7,20 20,20 17,0 20,7 20,40 0,33 3,40 20,40 18,0 20,7 20,60 0,53 2,60 20,60 19,0 20,7 20,135 0,128 -1,135 -20,135 -18,0 -20,7 -20,60 0,53 -2,60 -20,60 -17,0 -20,7 -20,40 0,33 -3,40 -20,40 -13,0 -20,7 -20,20 0,13 -7,20 -20,20 -13,0 -20,7 -20,20 0,13 -7,20 -20,20 -13,0 -20,7 -20,20 0,13 -7,20 -20,20 -18,0 -20,7 -20,60 0,53 -2,60 -20,60 -17,0 -20,7 -20,40 0,33 3,40 20,40 18,0 20,7 20,60 0,53 2,60 20,60 13,0 20,7 20,20 0,13 7,20 20,20 13,0 20,7 20,20 0,13 7,20 20,20 13,0 20,7 20,20 0,13 7,20 20,20 17,0 20,7 20,40 0,33 3,40 20,40 18,0 20,7 20,60 0,53 2,60 20,60 19,0 20,7 20,135 0,128 -1,135 -20,135 -18,0 -20,7 -20,60 0,53 -2,60 -20,60 -17,0 -20,7 -20,40 0,33 -3,40 -20,40 -13,0 -20,7 -20,20 0,13 -7,20 -20,20 -13,0 -20,7 -20,20 0,13 -7,20 -20,20 -13,0 -20,7 -20,20 0,17 -7,20 -40,20 -33,0 -40,3 -40,20 0,17 -7,20 -40,20 -33,0 -40,3 -40,20 0,17 -7,20 -40,20 -33,0 -40,3 -40,20 0,18 -7,20 -60,20 -53,0 -60,2 -60,20 0,19 -7,20 -95,20 -88,0 -95,1 -95,20 0,20 -7,20 -560,20 -553,0 -560,0 -560,-20 0,-19 -7,-20 -115,-20 -108,0 -115,-1 -115,-20 0,-19 -7,-20 -100,-20 -93,0 -100,-1 -100,-20 0,-18 -7,-20 -60,-20 -53,0 -60,-2 -60,-20 0,-18 -7,-20 -80,-20 -73,0 -80,-2 -80,-20 0,-18 -7,-20 -80,-20 -73,0 -80,-2 -80,-20 0,-18 -7,-20 -60,-20 -53,0 -60,-2 -60,-20 0,-18 -7,-20 -80,-20 -73,0 -80,-2 -80,-20 0,-18 -7,-20 -60,-20 -53,0 -60,-2 -60,-20 0,-18 -7,-20 -80,-20 -73,0 -80,-2 -80,-20 0,-18 -7,-20 -55,-20 -48,0 -55,-2 -55,-20 0,-18 -7,-20 -60,-20 -53,0 -60,-2 -60,-20 0,-18 -7,-20 -60,-20 -53,0 -60,-2 -60,-20 0,-18 -7,-20 -80,-20 -73,0 -80,-2 -80,-20 0,-18 -7,-20 -60,-20 -53,0 -60,-2 -60,-20 0,-18 -7,-20 -60,-20 -47,0 -60,-3 -60,-15 0,-12 -13,-15 -56,-15 -47,0 -57,-3 -61,-20 -4,-16 -14,-20 -49,-20 -24,0 -44,2 -44,5 0,18 53,55 78,55 19,0 41,11 62,32 20,19 35,27 38,20 7,-21 32,-13 68,23 24,25 41,34 54,30 13,-4 30,6 56,32 22,22 39,32 42,25 8,-24 34,-11 82,38 48,50 74,62 83,38 2,-8 21,5 47,32 26,27 45,40 47,33 8,-24 34,-13 75,30 25,25 43,37 45,30 8,-22 34,-14 63,17 29,31 55,39 62,18 3,-7 31,15 67,51 46,47 65,61 71,51 6,-10 19,-2 51,31 25,26 44,39 46,32 9,-25 35,-12 85,39 30,31 53,48 56,40 7,-23 33,-12 74,31 25,25 43,37 45,30 9,-25 35,-12 85,39 30,31 53,48 56,40 8,-24 34,-11 84,40 30,31 53,48 56,40 2,-6 10,-12 18,-12 20,0 64,45 64,65 0,18 36,21 42,3 3,-7 37,20 78,62 41,42 75,69 78,62 8,-24 34,-11 90,47 31,33 65,70 76,83 12,15 20,19 23,11 3,-7 10,-13 16,-13 16,0 787,771 787,787 0,6 -6,13 -12,15 -7,3 20,37 62,78 42,41 69,75 62,78 -23,7 -12,33 30,74 31,30 38,42 28,48 -11,7 -6,16 21,41 21,20 29,34 22,36 -20,7 -15,34 10,56 15,13 18,21 10,24 -20,7 -15,37 7,53 22,16 26,45 8,54 -10,5 -10,7 0,12 6,3 12,14 12,24 0,10 -6,21 -12,24 -10,5 -10,7 0,12 6,3 12,14 12,24 0,10 -6,21 -12,23 -10,4 -9,8 2,16 12,8 11,13 -8,29 -24,21 -29,48 -9,55 7,2 -5,20 -31,45 -28,27 -42,49 -40,62 2,13 -24,47 -87,110 -88,88 -109,102 -118,78 -2,-8 -21,5 -47,32 -26,27 -45,40 -47,33 -7,-20 -37,-15 -53,7 -8,11 -26,20 -41,20 -15,0 -30,6 -33,13 -5,10 -7,10 -12,0 -3,-7 -18,-13 -34,-13 -16,0 -31,-6 -34,-12 -5,-10 -7,-10 -12,0 -3,6 -14,12 -24,12 -10,0 -20,-6 -23,-12 -2,-8 -20,4 -45,30 -40,42 -67,53 -74,30 -3,-8 -15,-2 -33,17 -19,18 -25,30 -17,33 23,7 12,34 -30,74 -26,25 -38,43 -30,45 6,3 12,13 12,23 0,10 -6,21 -12,24 -10,5 -10,7 0,12 6,3 12,18 12,34 0,16 6,31 13,34 10,5 10,7 0,12 -7,3 -13,18 -13,33 0,15 -9,33 -20,41 -22,16 -27,46 -7,53 7,2 -6,21 -33,47 -27,26 -40,45 -32,47 24,9 10,30 -78,118 -63,63 -97,89 -110,87 -13,-2 -35,12 -62,40 -25,26 -43,38 -45,31 -7,-20 -34,-15 -55,9 -16,19 -21,20 -29,8 -8,-11 -12,-12 -16,-2 -2,6 -13,12 -23,12 -10,0 -21,-6 -24,-12 -5,-10 -7,-10 -12,0 -3,6 -14,12 -24,12 -10,0 -21,-6 -24,-12 -5,-10 -7,-10 -12,0 -9,18 -38,14 -54,-8 -16,-22 -46,-27 -53,-7 -3,8 -11,5 -24,-10 -11,-13 -31,-23 -44,-23 -14,0 -31,-9 -39,-20 -16,-22 -46,-27 -53,-7 -2,7 -20,-5 -45,-30 -41,-43 -67,-54 -74,-31 -3,7 -37,-20 -78,-62 -41,-42 -75,-69 -78,-62 -2,6 -9,12 -15,12 -16,0 -787,-771 -787,-787 0,-6 6,-13 13,-16 8,-3 4,-11 -11,-23 -13,-11 -50,-45 -83,-76 -58,-56 -71,-82 -47,-90 7,-3 -20,-37 -62,-78 -42,-41 -69,-75 -62,-78 23,-7 12,-33 -30,-74 -31,-30 -38,-42 -28,-48 10,-6 0,-21 -38,-58 -51,-50 -64,-76 -40,-84 8,-3 -9,-26 -40,-56 -51,-50 -64,-76 -39,-85 7,-2 -5,-20 -30,-45 -43,-41 -54,-67 -31,-74 8,-3 -9,-26 -40,-56 -51,-50 -64,-76 -39,-85 7,-2 -6,-21 -32,-46 -33,-32 -41,-45 -31,-51 10,-6 -4,-25 -51,-71 -36,-36 -58,-64 -51,-67 21,-7 13,-33 -18,-62 -31,-29 -39,-55 -17,-63 7,-2 -5,-20 -30,-45 -43,-41 -54,-67 -30,-75 7,-2 -6,-21 -33,-47 -27,-26 -40,-45 -32,-47 24,-9 12,-35 -38,-83 -49,-48 -62,-74 -38,-82 7,-3 -3,-20 -25,-42 -26,-26 -36,-43 -32,-56 4,-13 -5,-30 -30,-54 -36,-36 -44,-61 -22,-69 7,-2 -1,-16 -22,-36 -25,-23 -34,-40 -33,-63 0,-20 -8,-39 -24,-55 -17,-17 -23,-32 -20,-49 4,-19 -3,-34 -29,-60 -19,-19 -37,-34 -40,-34 -14,0 -3,52 15,70 14,14 20,33 20,65 0,32 4,45 14,45 14,0 26,42 26,91 0,19 5,29 15,29 10,0 16,17 21,60 4,38 11,60 19,60 17,0 25,23 25,75 0,34 4,44 20,48 18,5 20,14 20,81 0,69 2,76 20,76 18,0 20,7 20,60 0,53 2,60 20,60 18,0 20,7 20,60 0,53 2,60 20,60 18,0 20,7 20,60 0,53 2,60 20,60 18,0 20,7 20,80 0,73 2,80 20,80 18,0 20,7 20,60 0,53 2,60 20,60 18,0 20,7 20,80 0,73 2,80 20,80 18,0 20,7 20,60 0,53 2,60 20,60 18,0 20,7 20,85 0,78 2,85 20,85 18,0 20,7 20,80 0,73 2,80 20,80 18,0 20,7 20,60 0,53 2,60 20,60 19,0 20,7 20,100 0,93 1,100 20,100 19,0 20,7 20,120 0,113 1,120 20,120 20,0 20,7 20,560 0,553 0,560 -20,560 -19,0 -20,7 -20,100 0,93 -1,100 -20,100 -18,0 -20,7 -20,60 0,53 -2,60 -20,60 -17,0 -20,7 -20,40 0,33 -3,40 -20,40 -17,0 -20,7 -20,40 0,33 -3,40 -20,40 -17,0 -20,7 -20,40 0,33 -3,40 -20,40 -13,0 -20,7 -20,20 0,13 -7,20 -20,20 -13,0 -20,7 -20,20 0,13 -7,20 -20,20 -13,0 -20,7 -20,20 0,17 -7,20 -40,20 -33,0 -40,3 -40,20 0,18 -7,20 -60,20 -53,0 -60,2 -60,20 0,19 -7,20 -140,20 -133,0 -140,-1 -140,-20 0,-18 -7,-20 -60,-20 -53,0 -60,-2 -60,-20 0,-17 -7,-20 -40,-20 -33,0 -40,-3 -40,-20 0,-13 -7,-20 -20,-20 -13,0 -20,-7 -20,-20 0,-13 -7,-20 -20,-20 -13,0 -20,-7 -20,-20 0,-13 -7,-20 -20,-20 -13,0 -20,-7 -20,-20 0,-18 -7,-20 -60,-20 -53,0 -60,-2 -60,-20 0,-16 -7,-20 -30,-20 -23,0 -30,4 -30,20 0,18 -7,20 -60,20 -53,0 -60,2 -60,20 0,13 -7,20 -20,20 -13,0 -20,7 -20,20 0,13 -7,20 -20,20 -13,0 -20,7 -20,20 0,13 -7,20 -20,20 -13,0 -20,7 -20,20 0,17 -7,20 -40,20 -33,0 -40,3 -40,20 0,18 -7,20 -60,20 -53,0 -60,2 -60,20 0,19 -7,20 -140,20 -133,0 -140,-1 -140,-20 z m 240,-40 c 0,-18 7,-20 60,-20 53,0 60,-2 60,-20 0,-17 7,-20 40,-20 33,0 40,-3 40,-20 0,-13 7,-20 20,-20 13,0 20,-7 20,-20 0,-13 7,-20 20,-20 13,0 20,-7 20,-20 0,-13 7,-20 20,-20 13,0 20,-7 20,-20 0,-17 7,-20 40,-20 33,0 40,-3 40,-20 0,-19 7,-20 110,-20 103,0 110,1 110,20 0,17 7,20 40,20 33,0 40,3 40,20 0,13 7,20 20,20 13,0 20,7 20,20 0,13 7,20 20,20 13,0 20,7 20,20 0,13 7,20 20,20 13,0 20,7 20,20 0,17 7,20 40,20 33,0 40,3 40,20 0,18 7,20 60,20 53,0 60,2 60,20 0,19 7,20 100,20 93,0 100,-1 100,-20 0,-18 7,-20 60,-20 53,0 60,-2 60,-20 0,-17 7,-20 40,-20 33,0 40,-3 40,-20 0,-13 7,-20 20,-20 13,0 20,-7 20,-20 0,-13 7,-20 20,-20 13,0 20,-7 20,-20 0,-13 7,-20 20,-20 17,0 20,-7 20,-40 0,-33 3,-40 20,-40 17,0 20,-7 20,-40 0,-33 3,-40 20,-40 17,0 20,-7 20,-40 0,-33 3,-40 20,-40 18,0 20,-7 20,-80 0,-73 2,-80 20,-80 18,0 20,-7 20,-80 0,-73 2,-80 20,-80 20,0 20,-7 20,-520 0,-513 0,-520 -20,-520 -19,0 -20,-7 -20,-120 0,-113 -1,-120 -20,-120 -19,0 -20,-7 -20,-100 0,-93 -1,-100 -20,-100 -18,0 -20,-7 -20,-60 0,-53 -2,-60 -20,-60 -18,0 -20,-7 -20,-80 0,-73 -2,-80 -20,-80 -18,0 -20,-7 -20,-60 0,-53 -2,-60 -20,-60 -18,0 -20,-7 -20,-85 0,-78 -2,-85 -20,-85 -18,0 -20,-7 -20,-80 0,-73 -2,-80 -20,-80 -18,0 -20,-7 -20,-60 0,-53 -2,-60 -20,-60 -18,0 -20,-7 -20,-60 0,-53 -2,-60 -20,-60 -18,0 -20,-7 -20,-80 0,-73 -2,-80 -20,-80 -18,0 -20,-7 -20,-60 0,-53 -2,-60 -20,-60 -18,0 -20,-7 -20,-60 0,-53 -2,-60 -20,-60 -18,0 -20,-7 -20,-80 0,-73 -2,-80 -20,-80 -18,0 -20,-7 -20,-60 0,-53 -2,-60 -20,-60 -18,0 -20,-7 -20,-60 0,-53 -2,-60 -20,-60 -18,0 -20,-7 -20,-60 0,-53 -2,-60 -20,-60 -18,0 -20,-7 -20,-60 0,-53 -2,-60 -20,-60 -18,0 -20,-7 -20,-60 0,-53 -2,-60 -20,-60 -17,0 -20,-7 -20,-40 0,-33 -3,-40 -20,-40 -18,0 -20,-7 -20,-60 0,-53 -2,-60 -20,-60 -18,0 -20,-7 -20,-60 0,-53 -2,-60 -20,-60 -17,0 -20,-7 -20,-40 0,-33 -3,-40 -20,-40 -18,0 -20,-7 -20,-60 0,-53 -2,-60 -20,-60 -17,0 -20,-7 -20,-40 0,-33 -3,-40 -20,-40 -17,0 -20,-7 -20,-40 0,-33 -3,-40 -20,-40 -17,0 -20,-7 -20,-40 0,-33 -3,-40 -20,-40 -13,0 -20,-7 -20,-20 0,-13 -7,-20 -20,-20 -13,0 -20,-7 -20,-20 0,-13 -7,-20 -20,-20 -13,0 -20,-7 -20,-20 0,-13 -7,-20 -20,-20 -13,0 -20,-7 -20,-20 0,-16 -7,-20 -30,-20 -23,0 -30,4 -30,20 0,13 -7,20 -20,20 -13,0 -20,7 -20,20 0,13 -7,20 -20,20 -13,0 -20,7 -20,20 0,13 -7,20 -20,20 -13,0 -20,7 -20,20 0,13 -7,20 -20,20 -17,0 -20,7 -20,40 0,33 -3,40 -20,40 -17,0 -20,7 -20,40 0,33 -3,40 -20,40 -17,0 -20,7 -20,40 0,28 -4,40 -14,40 -18,0 -26,22 -26,76 0,37 -3,44 -20,44 -17,0 -20,7 -20,40 0,28 -4,40 -14,40 -18,0 -26,22 -26,76 0,37 -3,44 -20,44 -18,0 -20,7 -20,60 0,53 -2,60 -20,60 -18,0 -20,7 -20,60 0,53 -2,60 -20,60 -17,0 -20,7 -20,40 0,33 -3,40 -20,40 -18,0 -20,7 -20,60 0,53 -2,60 -20,60 -18,0 -20,7 -20,60 0,53 -2,60 -20,60 -18,0 -20,7 -20,60 0,53 -2,60 -20,60 -18,0 -20,7 -20,60 0,53 -2,60 -20,60 -18,0 -20,7 -20,80 0,73 -2,80 -20,80 -18,0 -20,7 -20,60 0,53 -2,60 -20,60 -18,0 -20,7 -20,60 0,53 -2,60 -20,60 -18,0 -20,7 -20,80 0,73 -2,80 -20,80 -18,0 -20,7 -20,60 0,53 -2,60 -20,60 -18,0 -20,7 -20,60 0,53 -2,60 -20,60 -18,0 -20,7 -20,80 0,73 -2,80 -20,80 -18,0 -20,7 -20,85 0,78 -2,85 -20,85 -18,0 -20,7 -20,60 0,53 -2,60 -20,60 -18,0 -20,7 -20,80 0,73 -2,80 -20,80 -18,0 -20,7 -20,60 0,53 -2,60 -20,60 -19,0 -20,7 -20,100 0,93 -1,100 -20,100 -19,0 -20,7 -20,120 0,113 -1,120 -20,120 -20,0 -20,7 -20,520 0,513 0,520 20,520 18,0 20,7 20,80 0,73 2,80 20,80 18,0 20,7 20,80 0,73 2,80 20,80 17,0 20,7 20,40 0,33 3,40 20,40 17,0 20,7 20,40 0,33 3,40 20,40 17,0 20,7 20,40 0,33 3,40 20,40 13,0 20,7 20,20 0,13 7,20 20,20 13,0 20,7 20,20 0,13 7,20 20,20 13,0 20,7 20,20 0,17 7,20 40,20 33,0 40,3 40,20 0,18 7,20 60,20 53,0 60,2 60,20 0,19 7,20 100,20 93,0 100,-1 100,-20 z M 2410,10330 c 0,-5 13,-10 29,-10 16,0 32,-6 35,-12 5,-10 7,-10 12,0 3,6 14,12 24,12 10,0 21,-6 24,-12 5,-10 7,-10 12,0 9,18 38,14 54,-8 16,-22 46,-27 53,-7 3,8 11,5 24,-10 22,-25 49,-30 56,-10 2,7 16,-1 36,-22 25,-27 34,-32 41,-21 6,10 21,0 58,-38 50,-51 76,-64 84,-40 3,7 32,-15 68,-52 36,-37 65,-59 68,-52 2,6 10,12 18,12 18,0 724,-706 724,-724 0,-8 -6,-16 -12,-19 -9,-3 -5,-11 10,-23 13,-11 50,-45 83,-76 58,-56 71,-82 47,-90 -7,-3 20,-36 61,-77 54,-53 70,-75 61,-81 -10,-6 -3,-19 28,-48 42,-41 53,-67 30,-74 -8,-3 9,-26 40,-56 51,-50 64,-76 40,-85 -8,-2 5,-21 32,-47 27,-26 40,-45 33,-47 -25,-9 -13,-35 37,-83 50,-48 62,-74 38,-82 -8,-3 9,-26 40,-56 31,-30 52,-59 52,-72 0,-12 18,-39 43,-62 25,-25 37,-43 30,-45 -22,-8 -14,-34 17,-63 31,-29 39,-55 18,-62 -8,-3 9,-26 40,-56 51,-50 64,-76 40,-85 -8,-2 4,-20 30,-45 42,-41 53,-67 29,-75 -7,-2 6,-21 33,-47 27,-26 40,-45 33,-47 -25,-9 -13,-35 37,-83 30,-29 50,-58 50,-70 0,-12 14,-35 30,-50 31,-29 39,-55 18,-62 -7,-3 3,-20 26,-43 31,-31 37,-43 32,-66 -4,-24 1,-35 31,-66 22,-22 32,-38 25,-41 -23,-7 -12,-34 31,-74 25,-25 37,-43 30,-45 -22,-8 -14,-34 17,-63 31,-29 39,-55 18,-63 -8,-2 0,-16 21,-36 27,-25 32,-34 21,-41 -10,-6 -3,-18 31,-51 26,-25 39,-44 32,-46 -24,-8 -13,-34 30,-75 25,-25 37,-43 30,-45 -20,-7 -15,-34 10,-56 15,-13 18,-21 10,-24 -24,-8 -13,-34 30,-75 25,-25 37,-43 30,-45 -19,-7 -16,-27 7,-43 22,-16 27,-46 8,-53 -9,-3 -6,-11 10,-24 12,-11 22,-31 22,-44 0,-14 9,-31 20,-39 22,-16 26,-45 8,-54 -10,-5 -10,-7 0,-12 6,-3 12,-14 12,-24 0,-10 -6,-21 -12,-24 -10,-5 -10,-7 0,-12 6,-3 12,-14 12,-24 0,-10 -6,-21 -12,-23 -10,-4 -9,-8 2,-17 11,-9 12,-13 3,-17 -17,-6 -17,-40 -1,-45 8,-3 2,-15 -17,-33 -18,-19 -30,-25 -33,-17 -5,16 -39,16 -45,0 -4,-10 -8,-9 -17,2 -9,11 -13,12 -17,3 -6,-17 -40,-17 -47,0 -5,10 -7,10 -12,0 -3,-7 -14,-13 -24,-13 -10,0 -21,6 -24,13 -5,10 -7,10 -12,0 -9,-19 -38,-15 -54,7 -8,11 -25,20 -39,20 -13,0 -33,10 -44,23 -13,15 -21,18 -24,10 -7,-20 -37,-15 -53,7 -16,23 -36,26 -43,8 -2,-8 -20,4 -45,30 -41,42 -67,53 -75,30 -3,-9 -11,-6 -24,10 -22,24 -49,29 -56,10 -2,-8 -20,4 -45,29 -41,43 -67,54 -75,31 -2,-8 -21,5 -46,31 -32,33 -45,41 -51,31 -6,-10 -18,-3 -48,28 -41,42 -67,52 -75,30 -3,-9 -11,-6 -24,10 -22,24 -49,29 -56,10 -2,-8 -20,4 -45,30 -40,42 -67,53 -74,30 -3,-7 -19,3 -41,25 -31,30 -42,35 -66,31 -23,-5 -35,1 -66,32 -23,23 -40,33 -43,26 -7,-21 -33,-13 -62,18 -15,17 -38,30 -50,30 -12,0 -41,20 -70,50 -48,50 -74,62 -83,38 -2,-8 -21,5 -47,32 -26,27 -45,40 -47,33 -8,-24 -34,-13 -75,30 -25,25 -43,37 -45,30 -9,-25 -35,-12 -85,39 -30,31 -53,48 -56,40 -7,-21 -33,-13 -62,18 -29,31 -55,39 -63,18 -2,-8 -20,4 -45,30 -23,24 -50,42 -62,42 -13,0 -42,21 -72,52 -30,31 -53,48 -56,40 -8,-24 -34,-12 -82,38 -48,50 -74,62 -83,38 -2,-8 -21,5 -47,32 -26,27 -45,40 -47,33 -9,-25 -35,-12 -85,39 -30,31 -53,48 -56,40 -7,-23 -33,-12 -74,31 -25,25 -43,37 -45,30 -9,-25 -35,-12 -93,47 -35,36 -67,60 -80,60 -19,0 -101,75 -154,142 -12,15 -20,19 -23,11 -3,-7 -11,-13 -19,-13 -8,0 -174,160 -369,355 -195,195 -355,361 -355,369 0,8 6,16 12,18 7,3 -15,31 -51,67 -47,46 -61,65 -51,71 10,6 3,18 -28,48 -23,22 -42,47 -42,55 0,9 -6,18 -12,20 -10,4 -10,8 1,15 12,9 9,16 -20,43 -21,20 -29,34 -21,36 19,7 14,34 -10,56 -16,13 -19,21 -10,24 19,7 14,37 -8,53 -22,16 -26,45 -7,54 9,5 9,7 0,12 -7,3 -13,14 -13,24 0,10 6,21 13,24 9,5 9,7 0,12 -7,3 -13,18 -13,34 0,16 -6,30 -12,33 -8,2 0,16 21,36 27,25 32,34 21,41 -10,6 -3,18 28,48 42,41 52,66 30,75 -9,3 -5,11 11,23 12,11 43,38 67,62 44,43 69,52 77,30 2,-8 21,5 46,31 33,34 45,41 51,31 7,-11 16,-6 41,21 20,21 34,29 36,22 3,-7 13,-13 23,-13 10,0 21,6 24,13 5,10 7,10 12,0 3,-7 14,-13 24,-13 10,0 21,6 24,13 5,10 7,10 12,0 3,-7 18,-13 34,-13 16,0 30,-6 33,-12 2,-8 16,0 37,22 21,22 35,30 37,23 9,-26 35,-11 108,62 73,73 88,99 63,108 -8,2 0,16 22,37 22,21 30,35 23,37 -7,3 -13,17 -13,33 0,16 -6,31 -12,34 -10,5 -10,7 0,12 6,3 12,14 12,24 0,10 -6,21 -12,24 -10,5 -10,7 0,12 6,3 12,14 12,24 0,10 -6,20 -12,23 -8,2 0,16 21,36 27,25 32,34 21,41 -10,6 -3,18 31,51 26,25 39,44 32,46 -23,8 -14,33 30,77 23,24 50,55 61,67 12,16 20,20 23,12 9,-23 34,-13 75,29 30,32 42,38 48,28 7,-11 15,-7 37,18 29,32 43,39 43,22 z m 6672,-22 c 23,-24 31,-29 38,-18 6,10 18,3 48,-28 41,-42 66,-52 75,-29 3,8 11,4 23,-12 11,-12 38,-43 62,-67 43,-44 52,-69 30,-77 -8,-2 5,-21 31,-46 34,-33 41,-45 31,-51 -11,-7 -6,-16 21,-41 21,-20 29,-34 22,-36 -7,-3 -13,-13 -13,-23 0,-10 6,-21 13,-24 10,-5 10,-7 0,-12 -7,-3 -13,-14 -13,-24 0,-10 6,-21 13,-24 10,-5 10,-7 0,-12 -7,-3 -13,-18 -13,-34 0,-16 -6,-30 -12,-33 -8,-2 0,-16 22,-37 22,-21 30,-35 23,-37 -26,-9 -11,-35 62,-108 73,-73 99,-88 108,-62 2,7 16,-1 37,-23 21,-22 35,-30 37,-22 3,6 17,12 33,12 16,0 31,6 34,13 5,10 7,10 12,0 3,-7 14,-13 24,-13 10,0 21,6 24,13 5,10 7,10 12,0 3,-7 14,-13 24,-13 10,0 20,6 23,13 2,7 16,-1 36,-22 25,-27 34,-32 41,-21 6,10 18,3 51,-31 25,-26 44,-39 46,-31 8,22 33,13 77,-30 24,-24 55,-51 67,-62 16,-12 20,-20 12,-23 -23,-9 -13,-34 29,-75 31,-30 38,-42 28,-48 -11,-7 -6,-16 21,-41 21,-20 29,-34 22,-36 -7,-3 -13,-17 -13,-33 0,-16 -6,-31 -12,-34 -10,-5 -10,-7 0,-12 6,-3 12,-14 12,-24 0,-10 -6,-21 -12,-24 -10,-5 -10,-7 0,-12 18,-9 14,-38 -8,-54 -22,-16 -27,-46 -7,-53 8,-3 5,-11 -10,-24 -25,-22 -30,-49 -10,-56 7,-2 -1,-16 -23,-37 -22,-21 -30,-35 -22,-37 24,-9 12,-35 -40,-85 -38,-37 -48,-52 -38,-58 10,-6 -4,-25 -51,-71 -36,-36 -58,-64 -51,-67 6,-2 12,-10 12,-18 0,-8 -160,-174 -355,-369 -195,-195 -361,-355 -369,-355 -8,0 -16,6 -19,13 -3,8 -11,4 -23,-11 -53,-67 -135,-142 -154,-142 -13,0 -45,-24 -80,-60 -58,-59 -84,-72 -93,-47 -2,7 -20,-5 -45,-30 -41,-43 -67,-54 -74,-31 -3,8 -26,-9 -56,-40 -50,-51 -76,-64 -85,-39 -2,7 -20,-5 -45,-30 -41,-43 -67,-54 -74,-31 -3,8 -26,-9 -56,-40 -50,-51 -76,-64 -84,-40 -3,8 -26,-9 -56,-40 -30,-31 -59,-52 -72,-52 -12,0 -39,-18 -62,-42 -25,-26 -43,-38 -45,-30 -8,21 -34,13 -63,-18 -29,-31 -55,-39 -62,-18 -3,8 -26,-9 -56,-40 -50,-51 -76,-64 -85,-39 -2,7 -20,-5 -45,-30 -41,-43 -67,-54 -75,-30 -2,7 -21,-6 -47,-33 -26,-27 -45,-40 -47,-32 -9,24 -35,12 -83,-38 -29,-30 -58,-50 -70,-50 -12,0 -35,-13 -50,-30 -29,-31 -55,-39 -62,-18 -3,7 -20,-3 -43,-26 -31,-31 -43,-37 -66,-32 -24,4 -35,-1 -66,-31 -22,-22 -38,-32 -41,-25 -7,23 -34,12 -74,-30 -25,-26 -43,-38 -45,-30 -7,19 -34,14 -56,-10 -13,-16 -21,-19 -24,-10 -8,22 -34,12 -75,-30 -30,-31 -42,-38 -48,-28 -6,10 -19,2 -51,-31 -25,-26 -44,-39 -46,-31 -8,23 -34,12 -75,-30 -25,-26 -43,-38 -45,-30 -7,19 -34,14 -56,-10 -13,-16 -21,-19 -24,-10 -8,23 -34,12 -75,-30 -25,-26 -43,-38 -45,-30 -7,18 -27,15 -43,-8 -16,-22 -46,-27 -53,-7 -3,8 -11,5 -24,-10 -11,-13 -31,-23 -44,-23 -14,0 -31,-9 -39,-20 -16,-22 -45,-26 -54,-7 -5,10 -7,10 -12,0 -7,-17 -41,-17 -48,0 -5,10 -7,10 -12,0 -3,-7 -14,-13 -24,-13 -10,0 -21,6 -23,13 -4,9 -8,8 -17,-3 -9,-11 -13,-12 -17,-2 -6,16 -40,16 -45,0 -3,-8 -15,-2 -33,17 -19,18 -25,30 -17,33 16,5 16,39 0,45 -10,4 -9,8 2,17 11,9 12,13 3,17 -17,6 -17,40 0,47 10,5 10,7 0,12 -7,3 -13,14 -13,24 0,10 6,21 13,24 10,5 10,7 0,12 -19,9 -15,38 7,54 11,8 20,25 20,39 0,13 10,33 23,44 15,13 18,21 10,24 -20,7 -15,37 7,53 23,16 26,36 8,43 -8,2 4,20 30,45 42,41 53,67 30,75 -9,3 -6,11 10,24 24,22 29,49 10,56 -8,2 4,20 30,45 42,41 53,67 30,75 -8,2 5,21 31,46 33,32 41,45 31,51 -10,6 -7,14 14,35 19,19 25,32 20,50 -5,19 1,31 25,54 32,30 40,56 19,64 -8,2 4,20 30,45 42,40 53,67 30,74 -7,3 3,19 25,41 30,31 35,42 31,66 -5,23 1,35 32,66 23,23 33,40 26,43 -21,7 -13,33 18,62 17,15 30,38 30,50 0,12 20,41 50,70 50,48 62,74 38,83 -8,2 5,21 32,47 27,26 40,45 33,47 -24,8 -13,34 30,75 25,25 37,43 30,45 -25,9 -12,35 39,85 31,30 48,53 40,56 -21,7 -13,33 18,62 31,29 39,55 18,63 -8,2 4,20 30,45 24,23 42,50 42,62 0,13 21,42 52,72 31,30 48,53 40,56 -24,8 -11,34 40,84 31,30 48,53 40,56 -23,7 -12,33 31,74 25,25 37,43 30,45 -25,9 -12,35 39,85 31,30 48,53 40,56 -23,7 -12,33 30,74 31,29 38,42 28,48 -9,6 7,28 61,81 41,41 68,74 61,77 -24,8 -11,34 47,90 33,31 70,65 83,76 15,12 19,20 11,23 -7,3 -13,11 -13,19 0,8 160,174 355,369 195,195 361,355 369,355 8,0 16,-6 18,-12 3,-7 32,15 68,52 36,37 65,59 68,52 8,-24 34,-11 84,40 37,38 52,48 58,38 7,-11 16,-6 41,21 20,21 34,29 36,22 7,-20 34,-15 56,10 13,15 21,18 24,10 7,-20 37,-15 53,7 16,22 45,26 54,8 5,-10 7,-10 12,0 3,6 14,12 24,12 10,0 21,-6 24,-12 5,-10 7,-10 12,0 3,6 19,12 35,12 16,0 29,5 29,10 0,17 11,11 42,-22 z M 1830,6930 c 0,-19 7,-20 115,-20 108,0 115,-1 115,-20 0,-19 7,-20 100,-20 93,0 100,-1 100,-20 0,-18 7,-20 60,-20 53,0 60,-2 60,-20 0,-18 7,-20 80,-20 73,0 80,-2 80,-20 0,-18 7,-20 60,-20 53,0 60,-2 60,-20 0,-18 7,-20 80,-20 73,0 80,-2 80,-20 0,-18 7,-20 80,-20 73,0 80,-2 80,-20 0,-18 7,-20 60,-20 53,0 60,-2 60,-20 0,-18 7,-20 60,-20 53,0 60,-2 60,-20 0,-18 7,-20 75,-20 68,0 75,-2 75,-20 0,-18 7,-20 60,-20 53,0 60,-2 60,-20 0,-18 7,-20 60,-20 53,0 60,-2 60,-20 0,-18 7,-20 80,-20 73,0 80,-2 80,-20 0,-18 7,-20 60,-20 47,0 60,-3 60,-15 0,-12 13,-15 60,-15 53,0 60,-2 60,-20 0,-18 7,-20 60,-20 53,0 60,-2 60,-20 0,-18 7,-20 60,-20 53,0 60,-2 60,-20 0,-18 7,-20 60,-20 53,0 60,-2 60,-20 0,-17 7,-20 40,-20 33,0 40,-3 40,-20 0,-18 7,-20 60,-20 53,0 60,-2 60,-20 0,-18 7,-20 55,-20 48,0 55,-2 55,-20 0,-17 7,-20 40,-20 33,0 40,-3 40,-20 0,-18 7,-20 60,-20 53,0 60,-2 60,-20 0,-17 7,-20 40,-20 33,0 40,-3 40,-20 0,-17 7,-20 40,-20 33,0 40,-3 40,-20 0,-17 7,-20 40,-20 33,0 40,-3 40,-20 0,-13 7,-20 20,-20 13,0 20,-7 20,-20 0,-13 7,-20 20,-20 13,0 20,-7 20,-20 0,-13 7,-20 20,-20 13,0 20,-7 20,-20 0,-13 7,-20 20,-20 17,0 20,-7 20,-40 0,-33 -3,-40 -20,-40 -13,0 -20,-7 -20,-20 0,-13 -7,-20 -20,-20 -13,0 -20,-7 -20,-20 0,-13 -7,-20 -20,-20 -13,0 -20,-7 -20,-20 0,-13 -7,-20 -20,-20 -13,0 -20,-7 -20,-20 0,-17 -7,-20 -40,-20 -33,0 -40,-3 -40,-20 0,-17 -7,-20 -40,-20 -33,0 -40,-3 -40,-20 0,-17 -7,-20 -40,-20 -33,0 -40,-3 -40,-20 0,-18 -7,-20 -60,-20 -53,0 -60,-2 -60,-20 0,-17 -7,-20 -40,-20 -33,0 -40,-3 -40,-20 0,-18 -7,-20 -55,-20 -48,0 -55,-2 -55,-20 0,-18 -7,-20 -60,-20 -53,0 -60,-2 -60,-20 0,-18 -7,-20 -60,-20 -53,0 -60,-2 -60,-20 0,-17 -7,-20 -40,-20 -33,0 -40,-3 -40,-20 0,-18 -7,-20 -60,-20 -53,0 -60,-2 -60,-20 0,-18 -7,-20 -60,-20 -47,0 -60,-3 -60,-15 0,-12 -13,-15 -60,-15 -53,0 -60,-2 -60,-20 0,-18 -7,-20 -60,-20 -53,0 -60,-2 -60,-20 0,-18 -7,-20 -80,-20 -73,0 -80,-2 -80,-20 0,-18 -7,-20 -60,-20 -53,0 -60,-2 -60,-20 0,-18 -7,-20 -60,-20 -53,0 -60,-2 -60,-20 0,-18 -7,-20 -75,-20 -68,0 -75,-2 -75,-20 0,-18 -7,-20 -60,-20 -53,0 -60,-2 -60,-20 0,-18 -7,-20 -60,-20 -53,0 -60,-2 -60,-20 0,-18 -7,-20 -80,-20 -73,0 -80,-2 -80,-20 0,-18 -7,-20 -80,-20 -73,0 -80,-2 -80,-20 0,-18 -7,-20 -60,-20 -53,0 -60,-2 -60,-20 0,-18 -7,-20 -80,-20 -73,0 -80,-2 -80,-20 0,-18 -7,-20 -60,-20 -53,0 -60,-2 -60,-20 0,-19 -7,-20 -100,-20 -93,0 -100,-1 -100,-20 0,-19 -7,-20 -115,-20 -108,0 -115,-1 -115,-20 0,-20 -7,-20 -520,-20 -513,0 -520,0 -520,20 0,18 -7,20 -75,20 -68,0 -75,2 -75,20 0,18 -7,20 -80,20 -73,0 -80,2 -80,20 0,17 -7,20 -40,20 -33,0 -40,3 -40,20 0,17 -7,20 -40,20 -33,0 -40,3 -40,20 0,17 -7,20 -40,20 -33,0 -40,3 -40,20 0,13 -7,20 -20,20 -13,0 -20,7 -20,20 0,13 -7,20 -20,20 -13,0 -20,7 -20,20 0,13 -7,20 -20,20 -17,0 -20,7 -20,40 0,33 -3,40 -20,40 -18,0 -20,7 -20,60 0,53 -2,60 -20,60 -19,0 -20,7 -20,95 0,88 1,95 20,95 18,0 20,7 20,60 0,53 2,60 20,60 17,0 20,7 20,40 0,33 3,40 20,40 13,0 20,7 20,20 0,13 7,20 20,20 13,0 20,7 20,20 0,13 7,20 20,20 13,0 20,7 20,20 0,13 7,20 20,20 17,0 20,7 20,40 0,33 3,40 20,40 19,0 20,7 20,120 0,113 -1,120 -20,120 -17,0 -20,7 -20,40 0,33 -3,40 -20,40 -13,0 -20,7 -20,20 0,13 -7,20 -20,20 -13,0 -20,7 -20,20 0,13 -7,20 -20,20 -13,0 -20,7 -20,20 0,13 -7,20 -20,20 -17,0 -20,7 -20,40 0,33 -3,40 -20,40 -18,0 -20,7 -20,60 0,53 -2,60 -20,60 -19,0 -20,7 -20,95 0,88 1,95 20,95 18,0 20,7 20,60 0,53 2,60 20,60 17,0 20,7 20,40 0,33 3,40 20,40 13,0 20,7 20,20 0,13 7,20 20,20 13,0 20,7 20,20 0,13 7,20 20,20 13,0 20,7 20,20 0,17 7,20 40,20 33,0 40,3 40,20 0,17 7,20 40,20 33,0 40,3 40,20 0,17 7,20 40,20 33,0 40,3 40,20 0,18 7,20 80,20 73,0 80,2 80,20 0,18 7,20 75,20 68,0 75,2 75,20 0,20 7,20 520,20 513,0 520,0 520,-20 z m 8820,0 c 0,-18 7,-20 75,-20 68,0 75,-2 75,-20 0,-18 7,-20 80,-20 73,0 80,-2 80,-20 0,-17 7,-20 40,-20 33,0 40,-3 40,-20 0,-17 7,-20 40,-20 33,0 40,-3 40,-20 0,-17 7,-20 40,-20 33,0 40,-3 40,-20 0,-13 7,-20 20,-20 13,0 20,-7 20,-20 0,-13 7,-20 20,-20 13,0 20,-7 20,-20 0,-13 7,-20 20,-20 17,0 20,-7 20,-40 0,-33 3,-40 20,-40 18,0 20,-7 20,-60 0,-53 2,-60 20,-60 19,0 20,-7 20,-95 0,-88 -1,-95 -20,-95 -18,0 -20,-7 -20,-60 0,-53 -2,-60 -20,-60 -17,0 -20,-7 -20,-40 0,-33 -3,-40 -20,-40 -13,0 -20,-7 -20,-20 0,-13 -7,-20 -20,-20 -13,0 -20,-7 -20,-20 0,-13 -7,-20 -20,-20 -13,0 -20,-7 -20,-20 0,-13 -7,-20 -20,-20 -17,0 -20,-7 -20,-40 0,-33 -3,-40 -20,-40 -19,0 -20,-7 -20,-120 0,-113 1,-120 20,-120 17,0 20,-7 20,-40 0,-33 3,-40 20,-40 13,0 20,-7 20,-20 0,-13 7,-20 20,-20 13,0 20,-7 20,-20 0,-13 7,-20 20,-20 13,0 20,-7 20,-20 0,-13 7,-20 20,-20 17,0 20,-7 20,-40 0,-33 3,-40 20,-40 18,0 20,-7 20,-60 0,-53 2,-60 20,-60 19,0 20,-7 20,-95 0,-88 -1,-95 -20,-95 -18,0 -20,-7 -20,-60 0,-53 -2,-60 -20,-60 -17,0 -20,-7 -20,-40 0,-33 -3,-40 -20,-40 -13,0 -20,-7 -20,-20 0,-13 -7,-20 -20,-20 -13,0 -20,-7 -20,-20 0,-13 -7,-20 -20,-20 -13,0 -20,-7 -20,-20 0,-17 -7,-20 -40,-20 -33,0 -40,-3 -40,-20 0,-17 -7,-20 -40,-20 -33,0 -40,-3 -40,-20 0,-17 -7,-20 -40,-20 -33,0 -40,-3 -40,-20 0,-18 -7,-20 -80,-20 -73,0 -80,-2 -80,-20 0,-18 -7,-20 -75,-20 -68,0 -75,-2 -75,-20 0,-20 -7,-20 -520,-20 -513,0 -520,0 -520,20 0,19 -7,20 -115,20 -108,0 -115,1 -115,20 0,19 -7,20 -100,20 -93,0 -100,1 -100,20 0,18 -7,20 -60,20 -53,0 -60,2 -60,20 0,18 -7,20 -80,20 -73,0 -80,2 -80,20 0,18 -7,20 -60,20 -53,0 -60,2 -60,20 0,18 -7,20 -80,20 -73,0 -80,2 -80,20 0,18 -7,20 -80,20 -73,0 -80,2 -80,20 0,18 -7,20 -60,20 -53,0 -60,2 -60,20 0,18 -7,20 -60,20 -53,0 -60,2 -60,20 0,18 -7,20 -75,20 -68,0 -75,2 -75,20 0,18 -7,20 -60,20 -53,0 -60,2 -60,20 0,18 -7,20 -60,20 -53,0 -60,2 -60,20 0,18 -7,20 -80,20 -73,0 -80,2 -80,20 0,18 -7,20 -60,20 -53,0 -60,2 -60,20 0,18 -7,20 -60,20 -47,0 -60,3 -60,15 0,12 -13,15 -60,15 -53,0 -60,2 -60,20 0,18 -7,20 -60,20 -53,0 -60,2 -60,20 0,18 -7,20 -60,20 -53,0 -60,2 -60,20 0,17 -7,20 -40,20 -33,0 -40,3 -40,20 0,18 -7,20 -60,20 -53,0 -60,2 -60,20 0,18 -7,20 -55,20 -48,0 -55,2 -55,20 0,17 -7,20 -40,20 -33,0 -40,3 -40,20 0,18 -7,20 -60,20 -53,0 -60,2 -60,20 0,17 -7,20 -40,20 -33,0 -40,3 -40,20 0,17 -7,20 -40,20 -33,0 -40,3 -40,20 0,17 -7,20 -40,20 -33,0 -40,3 -40,20 0,13 -7,20 -20,20 -13,0 -20,7 -20,20 0,13 -7,20 -20,20 -13,0 -20,7 -20,20 0,13 -7,20 -20,20 -13,0 -20,7 -20,20 0,13 -7,20 -20,20 -17,0 -20,7 -20,40 0,33 3,40 20,40 13,0 20,7 20,20 0,13 7,20 20,20 13,0 20,7 20,20 0,13 7,20 20,20 13,0 20,7 20,20 0,13 7,20 20,20 13,0 20,7 20,20 0,17 7,20 40,20 33,0 40,3 40,20 0,17 7,20 40,20 33,0 40,3 40,20 0,17 7,20 40,20 33,0 40,3 40,20 0,18 7,20 60,20 53,0 60,2 60,20 0,17 7,20 40,20 33,0 40,3 40,20 0,18 7,20 55,20 48,0 55,2 55,20 0,18 7,20 60,20 53,0 60,2 60,20 0,18 7,20 60,20 53,0 60,2 60,20 0,17 7,20 40,20 33,0 40,3 40,20 0,18 7,20 60,20 53,0 60,2 60,20 0,18 7,20 60,20 53,0 60,2 60,20 0,18 7,20 60,20 47,0 60,3 60,15 0,12 13,15 60,15 53,0 60,2 60,20 0,18 7,20 80,20 73,0 80,2 80,20 0,18 7,20 60,20 53,0 60,2 60,20 0,18 7,20 60,20 53,0 60,2 60,20 0,18 7,20 75,20 68,0 75,2 75,20 0,18 7,20 60,20 53,0 60,2 60,20 0,18 7,20 60,20 53,0 60,2 60,20 0,18 7,20 80,20 73,0 80,2 80,20 0,18 7,20 80,20 73,0 80,2 80,20 0,18 7,20 60,20 53,0 60,2 60,20 0,18 7,20 80,20 73,0 80,2 80,20 0,18 7,20 60,20 53,0 60,2 60,20 0,19 7,20 100,20 93,0 100,1 100,20 0,19 7,20 115,20 108,0 115,1 115,20 0,20 7,20 520,20 513,0 520,0 520,-20 z M 5530,6210 c 0,-13 7,-20 20,-20 13,0 20,-7 20,-20 0,-13 7,-20 20,-20 13,0 20,-7 20,-20 0,-13 7,-20 20,-20 13,0 20,-7 20,-20 0,-18 7,-20 70,-20 63,0 70,2 70,20 0,13 7,20 20,20 13,0 20,7 20,20 0,13 7,20 20,20 13,0 20,7 20,20 0,13 7,20 20,20 13,0 20,7 20,20 0,13 7,20 20,20 11,0 20,-6 20,-14 0,-8 6,-17 13,-19 9,-4 8,-8 -3,-17 -11,-9 -12,-13 -2,-17 6,-2 12,-13 12,-23 0,-10 -6,-21 -12,-24 -10,-5 -10,-7 0,-12 6,-3 12,-17 12,-30 0,-33 81,-114 114,-114 13,0 27,-6 30,-12 5,-10 7,-10 12,0 3,6 14,12 24,12 10,0 21,-6 23,-12 4,-10 8,-9 17,2 9,11 13,12 17,3 2,-7 13,-13 23,-13 10,0 21,6 23,13 4,9 8,8 16,-3 16,-22 13,-30 -9,-30 -13,0 -20,-7 -20,-20 0,-13 -7,-20 -20,-20 -13,0 -20,-7 -20,-20 0,-13 -7,-20 -20,-20 -13,0 -20,-7 -20,-20 0,-13 -7,-20 -20,-20 -18,0 -20,-7 -20,-80 0,-73 2,-80 20,-80 13,0 20,-7 20,-20 0,-13 7,-20 20,-20 13,0 20,-7 20,-20 0,-13 7,-20 20,-20 13,0 20,-7 20,-20 0,-13 7,-20 20,-20 22,0 26,-17 9,-40 -8,-11 -12,-12 -16,-2 -2,6 -13,12 -23,12 -10,0 -21,-6 -23,-12 -4,-10 -8,-9 -17,2 -9,11 -13,12 -17,3 -2,-7 -13,-13 -23,-13 -10,0 -21,6 -24,13 -5,10 -7,10 -12,0 -3,-7 -17,-13 -30,-13 -33,0 -114,-81 -114,-114 0,-13 -6,-27 -12,-30 -10,-5 -10,-7 0,-12 6,-3 12,-14 12,-24 0,-10 -6,-21 -12,-23 -10,-4 -9,-8 2,-17 11,-9 12,-13 3,-17 -17,-6 -17,-40 -1,-45 9,-3 8,-9 -4,-21 -22,-23 -38,-21 -38,3 0,13 -7,20 -20,20 -13,0 -20,7 -20,20 0,13 -7,20 -20,20 -13,0 -20,7 -20,20 0,13 -7,20 -20,20 -13,0 -20,7 -20,20 0,18 -7,20 -80,20 -73,0 -80,-2 -80,-20 0,-13 -7,-20 -20,-20 -13,0 -20,-7 -20,-20 0,-13 -7,-20 -20,-20 -13,0 -20,-7 -20,-20 0,-13 -7,-20 -20,-20 -13,0 -20,-7 -20,-20 0,-24 -16,-26 -38,-3 -12,12 -13,18 -4,21 16,5 16,39 0,45 -10,4 -9,8 2,17 11,9 12,13 3,17 -7,2 -13,13 -13,23 0,10 6,21 13,24 10,5 10,7 0,12 -17,7 -17,44 -1,44 7,0 -12,24 -41,54 -39,39 -58,52 -73,48 -11,-3 -24,1 -30,9 -7,11 -11,11 -15,2 -2,-7 -13,-13 -23,-13 -10,0 -21,6 -23,13 -4,9 -8,8 -17,-3 -9,-11 -13,-12 -17,-2 -6,16 -40,16 -45,0 -3,-9 -9,-8 -21,4 -23,22 -21,38 3,38 13,0 20,7 20,20 0,13 7,20 20,20 13,0 20,7 20,20 0,13 7,20 20,20 13,0 20,7 20,20 0,13 7,20 20,20 18,0 20,7 20,80 0,73 -2,80 -20,80 -13,0 -20,7 -20,20 0,13 -7,20 -20,20 -13,0 -20,7 -20,20 0,13 -7,20 -20,20 -13,0 -20,7 -20,20 0,13 -7,20 -20,20 -24,0 -25,6 -3,28 12,12 18,13 21,4 5,-16 39,-16 45,1 4,9 8,8 17,-3 9,-11 13,-12 17,-2 2,6 13,12 23,12 10,0 21,-6 24,-12 5,-10 7,-10 12,0 3,6 17,12 30,12 16,0 41,16 69,45 29,28 45,53 45,69 0,13 6,27 13,30 10,5 10,7 0,12 -7,3 -13,14 -13,24 0,10 6,21 13,23 9,4 8,8 -3,17 -11,9 -12,13 -2,17 6,2 12,11 12,19 0,8 7,14 15,14 8,0 15,-9 15,-20 z m -346,-792 c 5,-10 7,-10 12,0 3,6 14,12 24,12 10,0 21,-6 24,-12 5,-10 7,-10 12,0 3,6 14,12 24,12 10,0 21,-6 23,-12 4,-10 8,-9 17,2 9,11 13,12 17,3 2,-7 13,-13 23,-13 10,0 21,6 24,13 5,9 7,9 12,-1 3,-7 13,-20 22,-29 12,-12 13,-18 4,-21 -16,-5 -16,-39 1,-45 9,-4 8,-8 -3,-17 -11,-9 -12,-13 -2,-17 6,-2 12,-13 12,-23 0,-10 -6,-21 -12,-24 -10,-5 -10,-7 0,-12 6,-3 12,-14 12,-24 0,-10 -6,-21 -12,-24 -10,-5 -10,-7 0,-12 16,-8 15,-32 -3,-50 -8,-9 -15,-27 -15,-41 0,-14 -10,-35 -22,-46 -16,-13 -19,-21 -10,-24 19,-7 14,-37 -8,-53 -23,-16 -26,-36 -7,-43 7,-2 -5,-20 -30,-45 -43,-41 -54,-67 -30,-75 8,-3 5,-11 -10,-24 -25,-22 -30,-49 -10,-56 7,-2 -5,-20 -30,-45 -43,-41 -54,-67 -30,-75 7,-2 -6,-21 -32,-46 -34,-33 -41,-45 -31,-51 11,-7 6,-16 -21,-41 -21,-20 -29,-34 -21,-36 21,-8 13,-34 -18,-63 -31,-29 -39,-55 -17,-63 7,-2 -5,-20 -30,-45 -43,-41 -54,-67 -30,-75 7,-2 -6,-21 -33,-47 -27,-26 -40,-45 -32,-47 23,-8 12,-34 -30,-75 -26,-25 -38,-43 -30,-45 21,-8 13,-34 -18,-63 -16,-15 -30,-38 -30,-50 0,-12 -20,-41 -50,-70 -50,-48 -62,-74 -37,-83 7,-2 -6,-21 -33,-47 -27,-26 -40,-45 -32,-47 23,-8 12,-34 -30,-75 -26,-25 -38,-43 -30,-45 24,-9 11,-35 -40,-85 -31,-30 -48,-53 -40,-56 21,-7 13,-33 -18,-62 -31,-29 -39,-55 -17,-63 7,-2 -5,-20 -30,-45 -25,-23 -43,-50 -43,-62 0,-13 -21,-42 -52,-72 -31,-30 -48,-53 -40,-56 24,-8 12,-34 -38,-82 -50,-48 -62,-74 -37,-83 7,-2 -6,-21 -33,-47 -27,-26 -40,-45 -32,-47 24,-9 11,-35 -40,-85 -31,-30 -48,-53 -40,-56 23,-7 12,-33 -30,-74 -26,-25 -38,-43 -30,-45 24,-9 11,-35 -48,-93 -36,-35 -60,-67 -60,-80 0,-19 -75,-101 -142,-154 -15,-12 -19,-20 -10,-23 27,-10 7,-38 -118,-166 -427,-435 -571,-577 -584,-577 -8,0 -16,6 -18,12 -3,7 -31,-15 -67,-51 -46,-47 -65,-61 -71,-51 -6,10 -21,0 -58,-38 -50,-52 -76,-64 -85,-39 -2,7 -16,-1 -37,-23 -21,-22 -35,-30 -37,-22 -7,19 -34,14 -56,-11 -13,-15 -21,-18 -24,-9 -7,19 -37,14 -53,-8 -16,-22 -45,-26 -54,-7 -5,9 -7,9 -12,0 -7,-17 -41,-17 -48,0 -5,9 -7,9 -12,0 -3,-7 -18,-13 -34,-13 -16,0 -30,-6 -33,-12 -2,-8 -16,0 -36,21 -25,27 -34,32 -41,21 -6,-10 -18,-3 -48,28 -40,42 -67,53 -74,30 -5,-15 -138,116 -138,136 0,8 6,16 13,19 7,2 -6,21 -32,46 -34,33 -41,45 -31,51 11,7 6,16 -21,41 -21,20 -29,34 -21,36 6,3 12,13 12,23 0,10 -6,21 -12,24 -10,5 -10,7 0,12 6,3 12,14 12,24 0,10 -6,21 -12,24 -10,5 -10,7 0,12 6,3 12,18 12,34 0,16 6,30 13,33 7,2 -1,16 -23,37 -22,21 -30,35 -22,37 25,9 10,35 -63,108 -73,73 -99,88 -108,63 -2,-8 -16,0 -37,22 -21,22 -35,30 -37,23 -3,-7 -15,-13 -28,-13 -13,0 -26,-6 -29,-12 -5,-10 -7,-10 -12,0 -3,6 -14,12 -24,12 -10,0 -21,-6 -24,-12 -5,-10 -7,-10 -12,0 -7,16 -41,16 -47,0 -2,-8 -16,0 -36,21 -25,27 -34,32 -41,21 -6,-10 -18,-3 -51,31 -25,26 -44,39 -46,32 -8,-23 -33,-14 -77,29 -24,24 -55,51 -67,62 -16,12 -20,20 -11,23 22,9 12,34 -30,75 -31,30 -38,42 -28,48 11,7 6,16 -21,41 -21,20 -29,34 -21,36 6,3 12,17 12,33 0,16 6,31 13,34 9,5 9,7 0,12 -17,7 -17,41 0,48 9,5 9,7 0,12 -19,9 -15,38 7,54 22,16 27,46 8,53 -9,3 -6,11 10,24 24,22 29,49 10,56 -8,2 0,16 22,37 22,21 30,35 23,37 -25,9 -13,35 39,85 38,37 48,52 38,58 -10,6 4,25 51,71 36,36 58,64 51,67 -6,2 -12,10 -12,18 0,8 72,87 160,177 88,89 246,249 350,355 104,105 196,192 204,192 8,0 16,-5 18,-12 3,-7 41,24 86,70 50,51 89,82 102,82 13,0 45,24 80,60 58,59 84,72 93,48 2,-8 20,4 45,30 41,42 67,53 74,30 3,-8 26,9 56,40 50,51 76,64 85,40 2,-8 21,5 47,32 26,27 45,40 47,33 9,-25 35,-13 83,37 48,50 74,62 82,38 3,-8 26,9 56,40 30,31 59,52 72,52 12,0 39,18 62,43 25,25 43,37 45,30 8,-22 34,-14 63,17 29,31 55,39 62,18 3,-8 26,9 56,40 50,51 76,64 85,40 4,-13 67,46 67,63 0,14 38,11 43,-3 2,-8 21,5 47,32 26,27 45,40 47,33 9,-25 35,-13 83,37 29,30 58,50 70,50 12,0 35,14 50,30 29,31 55,39 62,18 3,-7 20,3 43,26 31,31 43,37 66,32 24,-4 35,1 66,31 22,22 38,32 41,25 7,-23 34,-12 74,31 25,25 43,37 45,30 7,-20 34,-15 56,10 13,15 21,18 24,10 8,-23 34,-13 75,29 30,31 42,38 48,28 6,-10 19,-2 51,31 25,26 44,39 46,32 8,-24 34,-13 75,30 25,25 43,37 45,30 7,-20 34,-15 56,10 13,15 21,18 24,10 8,-24 34,-13 75,30 25,25 43,37 45,30 7,-20 37,-15 53,7 16,22 46,27 53,8 3,-9 11,-6 24,10 11,12 31,22 44,22 14,0 31,9 39,20 16,22 45,26 54,8 z m 886,2 c 0,-14 37,-12 43,3 4,9 8,8 17,-3 9,-11 13,-12 17,-2 2,6 13,12 23,12 10,0 21,-6 24,-12 5,-10 7,-10 12,0 3,6 14,12 24,12 10,0 21,-6 24,-12 5,-10 7,-10 12,0 9,18 38,14 54,-8 8,-11 25,-20 39,-20 13,0 33,-10 44,-22 13,-16 21,-19 24,-10 7,19 37,14 53,-8 16,-23 36,-26 43,-7 2,7 20,-5 45,-30 41,-43 67,-54 75,-30 3,8 11,5 24,-10 22,-25 49,-30 56,-10 2,7 20,-5 45,-30 41,-43 67,-54 75,-30 2,7 21,-6 46,-32 32,-33 45,-41 51,-31 6,10 18,3 48,-28 41,-42 67,-52 75,-29 3,8 11,5 24,-10 22,-25 49,-30 56,-10 2,7 20,-5 45,-30 40,-43 67,-54 74,-31 3,7 19,-3 41,-25 31,-30 42,-35 66,-31 23,5 35,-1 66,-32 23,-23 40,-33 43,-26 7,21 33,13 62,-18 15,-16 38,-30 50,-30 12,0 41,-20 70,-50 48,-50 74,-62 83,-37 2,7 21,-6 47,-33 26,-27 45,-40 47,-32 8,23 34,12 75,-30 25,-26 43,-38 45,-30 9,24 35,11 85,-40 30,-31 53,-48 56,-40 7,21 33,13 62,-18 29,-31 55,-39 63,-17 2,7 20,-5 45,-30 23,-25 50,-43 62,-43 13,0 42,-21 72,-52 30,-31 53,-48 56,-40 8,24 34,12 82,-38 48,-50 74,-62 83,-37 2,7 21,-6 47,-33 26,-27 45,-40 47,-32 9,24 35,11 85,-40 30,-31 53,-48 56,-40 7,23 33,12 74,-30 25,-26 43,-38 45,-30 9,24 35,11 93,-48 35,-36 67,-60 80,-60 19,0 101,-75 154,-142 12,-15 20,-19 23,-10 3,6 11,12 19,12 18,0 724,-706 724,-724 0,-8 -6,-16 -12,-18 -7,-3 15,-31 51,-67 47,-46 61,-65 51,-71 -10,-6 0,-21 38,-58 52,-50 64,-76 40,-85 -8,-2 0,-16 22,-37 22,-21 30,-35 23,-37 -20,-7 -15,-34 10,-56 15,-13 18,-21 10,-24 -20,-7 -15,-37 7,-53 22,-16 26,-45 8,-54 -10,-5 -10,-7 0,-12 6,-3 12,-14 12,-24 0,-10 -6,-21 -12,-24 -10,-5 -10,-7 0,-12 6,-3 12,-18 12,-34 0,-16 6,-30 13,-33 7,-2 -1,-16 -22,-36 -27,-25 -32,-34 -21,-41 10,-6 3,-18 -28,-48 -42,-41 -52,-66 -29,-75 8,-3 4,-11 -12,-23 -12,-11 -43,-38 -67,-61 -44,-44 -69,-53 -77,-30 -2,7 -21,-6 -46,-32 -33,-34 -45,-41 -51,-31 -7,11 -16,6 -41,-21 -20,-21 -34,-29 -36,-21 -3,6 -13,12 -23,12 -10,0 -21,-6 -24,-12 -5,-10 -7,-10 -12,0 -3,6 -14,12 -24,12 -10,0 -21,-6 -24,-12 -5,-10 -7,-10 -12,0 -3,6 -18,12 -34,12 -16,0 -30,6 -33,13 -2,7 -16,-1 -37,-23 -21,-22 -35,-30 -37,-22 -9,25 -35,10 -108,-63 -73,-73 -88,-99 -62,-108 7,-2 -1,-16 -23,-37 -22,-21 -30,-35 -22,-37 6,-3 12,-17 12,-33 0,-16 6,-31 13,-34 10,-5 10,-7 0,-12 -7,-3 -13,-14 -13,-24 0,-10 6,-21 13,-24 10,-5 10,-7 0,-12 -7,-3 -13,-14 -13,-24 0,-10 6,-20 13,-23 7,-2 -1,-16 -22,-36 -27,-25 -32,-34 -21,-41 10,-6 3,-18 -31,-51 -26,-25 -39,-44 -31,-46 22,-8 13,-33 -30,-77 -24,-24 -51,-55 -62,-67 -12,-16 -20,-20 -23,-11 -9,22 -34,12 -75,-30 -30,-31 -42,-38 -48,-28 -7,11 -16,6 -41,-21 -20,-21 -34,-29 -36,-21 -3,6 -17,12 -33,12 -16,0 -31,6 -34,13 -5,9 -7,9 -12,0 -7,-17 -41,-17 -48,0 -5,10 -7,10 -12,0 -9,-19 -38,-15 -54,7 -16,22 -46,27 -53,8 -3,-9 -11,-6 -24,10 -22,24 -49,29 -56,10 -2,-8 -16,0 -37,22 -21,22 -35,30 -37,23 -9,-25 -35,-13 -85,39 -37,38 -52,48 -58,38 -6,-10 -25,4 -71,51 -36,36 -64,58 -67,51 -2,-6 -10,-12 -18,-12 -18,0 -724,706 -724,724 0,8 6,16 13,19 8,3 4,11 -11,23 -67,53 -142,135 -142,154 0,13 -24,45 -60,80 -59,58 -72,84 -47,93 7,2 -5,20 -30,45 -43,41 -54,67 -31,74 8,3 -9,26 -40,56 -51,50 -64,76 -39,85 7,2 -6,21 -33,47 -27,26 -40,45 -32,47 24,9 12,35 -38,83 -50,48 -62,74 -38,82 8,3 -9,26 -40,56 -31,30 -52,59 -52,72 0,12 -18,39 -42,62 -26,25 -38,43 -30,45 21,8 13,34 -18,63 -31,29 -39,55 -18,62 8,3 -9,26 -40,56 -51,50 -64,76 -39,85 7,2 -5,20 -30,45 -43,41 -54,67 -30,75 7,2 -6,21 -33,47 -27,26 -40,45 -32,47 24,9 12,35 -38,83 -30,29 -50,58 -50,70 0,12 -13,35 -30,50 -31,29 -39,55 -18,62 7,3 -3,20 -26,43 -31,31 -37,43 -32,66 4,24 -1,35 -31,66 -22,22 -32,38 -25,41 23,7 12,34 -30,74 -26,25 -38,43 -30,45 21,8 13,34 -18,63 -31,29 -39,55 -17,63 7,2 -1,16 -22,36 -27,25 -32,34 -21,41 10,6 3,18 -31,51 -26,25 -39,44 -31,46 23,8 12,34 -30,75 -26,25 -38,43 -30,45 19,7 14,34 -10,56 -16,13 -19,21 -10,24 23,8 12,34 -30,75 -26,25 -38,43 -30,45 18,7 15,27 -8,43 -22,16 -27,46 -7,53 8,3 5,11 -10,24 -13,11 -23,31 -23,44 0,14 -9,31 -20,39 -22,16 -26,45 -7,54 10,5 10,7 0,12 -7,3 -13,14 -13,24 0,10 6,21 13,24 10,5 10,7 0,12 -7,3 -13,14 -13,24 0,10 6,21 13,23 9,4 8,8 -3,17 -11,9 -12,13 -2,17 16,6 16,40 0,45 -8,3 -4,14 12,31 27,27 40,33 40,17 z m -310,-170 c 0,-13 7,-20 20,-20 13,0 20,-7 20,-20 0,-13 7,-20 20,-20 13,0 20,-7 20,-20 0,-13 7,-20 20,-20 13,0 20,-7 20,-20 0,-13 7,-20 20,-20 17,0 20,-7 20,-40 0,-33 3,-40 20,-40 17,0 20,-7 20,-40 0,-33 3,-40 20,-40 17,0 20,-7 20,-40 0,-33 3,-40 20,-40 18,0 20,-7 20,-60 0,-53 2,-60 20,-60 17,0 20,-7 20,-40 0,-33 3,-40 20,-40 18,0 20,-7 20,-55 0,-48 2,-55 20,-55 18,0 20,-7 20,-60 0,-53 2,-60 20,-60 18,0 20,-7 20,-60 0,-53 2,-60 20,-60 17,0 20,-7 20,-40 0,-33 3,-40 20,-40 18,0 20,-7 20,-60 0,-53 2,-60 20,-60 18,0 20,-7 20,-60 0,-47 3,-60 15,-60 12,0 15,-13 15,-60 0,-53 2,-60 20,-60 18,0 20,-7 20,-60 0,-53 2,-60 20,-60 18,0 20,-7 20,-80 0,-73 2,-80 20,-80 18,0 20,-7 20,-60 0,-53 2,-60 20,-60 18,0 20,-7 20,-60 0,-53 2,-60 20,-60 18,0 20,-7 20,-75 0,-68 2,-75 20,-75 18,0 20,-7 20,-60 0,-53 2,-60 20,-60 18,0 20,-7 20,-60 0,-53 2,-60 20,-60 18,0 20,-7 20,-80 0,-73 2,-80 20,-80 18,0 20,-7 20,-80 0,-73 2,-80 20,-80 18,0 20,-7 20,-60 0,-53 2,-60 20,-60 18,0 20,-7 20,-80 0,-73 2,-80 20,-80 18,0 20,-7 20,-60 0,-53 2,-60 20,-60 19,0 20,-7 20,-100 0,-93 1,-100 20,-100 19,0 20,-7 20,-115 0,-108 1,-115 20,-115 20,0 20,-7 20,-520 0,-513 0,-520 -20,-520 -18,0 -20,-7 -20,-75 0,-68 -2,-75 -20,-75 -18,0 -20,-7 -20,-80 0,-73 -2,-80 -20,-80 -17,0 -20,-7 -20,-40 0,-33 -3,-40 -20,-40 -17,0 -20,-7 -20,-40 0,-33 -3,-40 -20,-40 -17,0 -20,-7 -20,-40 0,-33 -3,-40 -20,-40 -13,0 -20,-7 -20,-20 0,-13 -7,-20 -20,-20 -13,0 -20,-7 -20,-20 0,-13 -7,-20 -20,-20 -13,0 -20,-7 -20,-20 0,-17 -7,-20 -40,-20 -33,0 -40,-3 -40,-20 0,-18 -7,-20 -60,-20 -53,0 -60,-2 -60,-20 0,-19 -7,-20 -95,-20 -88,0 -95,1 -95,20 0,18 -7,20 -60,20 -53,0 -60,2 -60,20 0,17 -7,20 -40,20 -33,0 -40,3 -40,20 0,13 -7,20 -20,20 -13,0 -20,7 -20,20 0,13 -7,20 -20,20 -13,0 -20,7 -20,20 0,13 -7,20 -20,20 -13,0 -20,7 -20,20 0,17 -7,20 -40,20 -33,0 -40,3 -40,20 0,19 -7,20 -120,20 -113,0 -120,-1 -120,-20 0,-17 -7,-20 -40,-20 -33,0 -40,-3 -40,-20 0,-13 -7,-20 -20,-20 -13,0 -20,-7 -20,-20 0,-13 -7,-20 -20,-20 -13,0 -20,-7 -20,-20 0,-13 -7,-20 -20,-20 -13,0 -20,-7 -20,-20 0,-17 -7,-20 -40,-20 -33,0 -40,-3 -40,-20 0,-18 -7,-20 -60,-20 -53,0 -60,-2 -60,-20 0,-19 -7,-20 -95,-20 -88,0 -95,1 -95,20 0,18 -7,20 -60,20 -53,0 -60,2 -60,20 0,17 -7,20 -40,20 -33,0 -40,3 -40,20 0,13 -7,20 -20,20 -13,0 -20,7 -20,20 0,13 -7,20 -20,20 -13,0 -20,7 -20,20 0,13 -7,20 -20,20 -17,0 -20,7 -20,40 0,33 -3,40 -20,40 -17,0 -20,7 -20,40 0,33 -3,40 -20,40 -17,0 -20,7 -20,40 0,33 -3,40 -20,40 -18,0 -20,7 -20,80 0,73 -2,80 -20,80 -18,0 -20,7 -20,75 0,68 -2,75 -20,75 -20,0 -20,7 -20,520 0,513 0,520 20,520 19,0 20,7 20,115 0,108 1,115 20,115 19,0 20,7 20,100 0,93 1,100 20,100 18,0 20,7 20,60 0,53 2,60 20,60 18,0 20,7 20,80 0,73 2,80 20,80 18,0 20,7 20,60 0,53 2,60 20,60 18,0 20,7 20,80 0,73 2,80 20,80 18,0 20,7 20,80 0,73 2,80 20,80 18,0 20,7 20,60 0,53 2,60 20,60 18,0 20,7 20,60 0,53 2,60 20,60 18,0 20,7 20,75 0,68 2,75 20,75 18,0 20,7 20,60 0,53 2,60 20,60 18,0 20,7 20,60 0,53 2,60 20,60 18,0 20,7 20,80 0,73 2,80 20,80 18,0 20,7 20,60 0,47 3,60 15,60 12,0 15,13 15,60 0,53 2,60 20,60 18,0 20,7 20,60 0,53 2,60 20,60 18,0 20,7 20,60 0,53 2,60 20,60 18,0 20,7 20,60 0,53 2,60 20,60 17,0 20,7 20,40 0,33 3,40 20,40 18,0 20,7 20,60 0,53 2,60 20,60 18,0 20,7 20,55 0,48 2,55 20,55 17,0 20,7 20,40 0,33 3,40 20,40 18,0 20,7 20,60 0,53 2,60 20,60 17,0 20,7 20,40 0,33 3,40 20,40 17,0 20,7 20,40 0,33 3,40 20,40 17,0 20,7 20,40 0,33 3,40 20,40 13,0 20,7 20,20 0,13 7,20 20,20 13,0 20,7 20,20 0,13 7,20 20,20 13,0 20,7 20,20 0,13 7,20 20,20 13,0 20,7 20,20 0,17 7,20 40,20 33,0 40,-3 40,-20 z"
       id="path2991"
       inkscape:connector-curvature="0" />
  </g>
  <path
     sodipodi:type="arc"
     style="fill:#ffffff;fill-opacity:0.99470903;stroke:#000000;stroke-width:1.70000005;stroke-miterlimit:4;stroke-opacity:1;stroke-dasharray:none;stroke-dashoffset:0"
     id="path3791"
     sodipodi:cx="-244.07376"
     sodipodi:cy="157.25096"
     sodipodi:rx="29.0564"
     sodipodi:ry="28.410702"
     d="m -215.56207,151.77561 a 29.0564,28.410702 0 1 1 -0.23768,-1.07318"
     transform="matrix(0.8,0,0,0.8,342.4781,17.046421)"
     sodipodi:start="6.0892505"
     sodipodi:end="12.333784"
     sodipodi:open="true" />
</svg>
